<svg version="1.1" xmlns="http://www.w3.org/2000/svg" xmlns:xlink="http://www.w3.org/1999/xlink" width="1130" height="1077"><desc>title%20Placement%20d'un%20batiment%0A%0Aactor%20User%0A%0A%0AUser-%3EVue%3A%20clique%20sur%20un%20perso%0Aactivate%20Vue%0Aactivate%20Controleur%0AVue-%3EVue%3Aajoute%20perso%20a%20selection%0AVue-%3EUser%3Aaffiche%20choix%20batiment(commandes_perso)%0AUser-%3EVue%3Aclique%20sur%20choix%20batiment(widget)%0AVue-%3EVue%3A%20bind%20clique%20a%20batir_artefact%0AUser-%3EVue%3A%20clique%20sur%20map%20(batir_artefact())%0AVue-%3EVue%3A%20Check%20si%20ressources%20requises%20en%20main%0Aexpandable-%20negatif%0AVue-%3EUser%3A%20print(ressources%20insufisantes)%0Aend%0Aexpandable-%20positif%0AVue-%3EVue%3A%20prochaineaction%20%3D%20choixUser%0Aend%0AUser-%3EVue%3A%20clique%20droit%20sur%20emplacement%20batiment%0Acontrol%20Controleur%0AVue-%3EControleur%3A%20ajoute%20action%20batir%20a%20actions_requises%5B%5D%0Adeactivate%20Vue%0AControleur-%3EControleur%3A%20dans%20boucle%20transfert%20actions_requises%20dans%20actions%0Adatabase%20Serveur%0AControleur-%3EServeur%3A%20envoi%20l'iteration%20et%20les%20actions%0AServeur-%3EControleur%3A%20renvoi%20si%20jouer%20et%20les%20actions%20a%20jour%0A</desc><defs/><g><g/><g/><g/><g/><g/><g/><g/><g/><g/><g/><g/><g/><g/><g/><g/><g/><g/><g/><g><rect fill="white" stroke="none" x="0" y="0" width="1130" height="1077"/></g><g><text fill="black" stroke="none" font-family="sans-serif" font-size="16.5pt" font-style="normal" font-weight="normal" text-decoration="normal" x="444.31789486754553" y="24.50280495" text-anchor="start" dominant-baseline="alphabetic" xml:space="preserve">Placement d'un batiment</text></g><g/><g><path fill="none" stroke="black" paint-order="fill stroke markers" d=" M 73.50841485 128.884754037 L 73.50841485 1077.9600657669998" stroke-miterlimit="10" stroke-width="1.3612669416666667" stroke-dasharray="12.565541,5.445067766666667"/><path fill="none" stroke="black" paint-order="fill stroke markers" d=" M 403.23655863333335 128.884754037 L 403.23655863333335 1077.9600657669998" stroke-miterlimit="10" stroke-width="1.3612669416666667" stroke-dasharray="12.565541,5.445067766666667"/><path fill="none" stroke="black" paint-order="fill stroke markers" d=" M 712.1323040666666 128.884754037 L 712.1323040666666 1077.9600657669998" stroke-miterlimit="10" stroke-width="1.3612669416666667" stroke-dasharray="12.565541,5.445067766666667"/><path fill="none" stroke="black" paint-order="fill stroke markers" d=" M 1089.2477784333332 128.884754037 L 1089.2477784333332 1077.9600657669998" stroke-miterlimit="10" stroke-width="1.3612669416666667" stroke-dasharray="12.565541,5.445067766666667"/></g><g><g><path fill="white" stroke="black" paint-order="fill stroke markers" d=" M 82.819480731 59.786844078 A 9.311065881 9.311065881 0 1 1 82.81947607546743 59.77753301367084 M 73.50841485 69.097909959 L 73.50841485 89.026857985 M 61.747068473999995 76.285399411 L 85.26976122599999 76.285399411 M 73.50841485 89.026857985 L 61.747068473999995 107.648989747 M 73.50841485 89.026857985 L 85.26976122599999 107.648989747" stroke-miterlimit="10" stroke-width="2.7769845610000004" stroke-dasharray=""/></g><g><g/><text fill="black" stroke="none" font-family="sans-serif" font-size="11pt" font-style="normal" font-weight="normal" text-decoration="normal" x="58.008414849999994" y="123.98419304699999" text-anchor="start" dominant-baseline="alphabetic" xml:space="preserve">User</text></g><path fill="none" stroke="none"/><g><path fill="white" stroke="black" paint-order="fill stroke markers" d=" M 373.5128630528333 84.779705127 L 432.9602542138333 84.779705127 L 432.9602542138333 128.884754037 L 373.5128630528333 128.884754037 L 373.5128630528333 84.779705127 Z" stroke-miterlimit="10" stroke-width="2.613632528" stroke-dasharray=""/></g><g><g/><text fill="black" stroke="none" font-family="sans-serif" font-size="11pt" font-style="normal" font-weight="normal" text-decoration="normal" x="391.23655863333335" y="112.549550737" text-anchor="start" dominant-baseline="alphabetic" xml:space="preserve">Vue</text></g><path fill="none" stroke="none"/><g><path fill="white" stroke="black" paint-order="fill stroke markers" d=" M 660.4086084861666 84.779705127 L 763.8559996471666 84.779705127 L 763.8559996471666 128.884754037 L 660.4086084861666 128.884754037 L 660.4086084861666 84.779705127 Z" stroke-miterlimit="10" stroke-width="2.613632528" stroke-dasharray=""/></g><g><g/><text fill="black" stroke="none" font-family="sans-serif" font-size="11pt" font-style="normal" font-weight="normal" text-decoration="normal" x="678.1323040666666" y="112.549550737" text-anchor="start" dominant-baseline="alphabetic" xml:space="preserve">Controleur</text></g><g><path fill="white" stroke="black" paint-order="fill stroke markers" d=" M 1065.3983816153332 96.867755569 L 1065.3983816153332 62.563828639 L 1113.0971752513333 62.563828639 L 1113.0971752513333 96.867755569" stroke-miterlimit="10" stroke-width="2.7769845610000004" stroke-dasharray=""/><path fill="white" stroke="black" paint-order="fill stroke markers" d=" M 1113.0971752513333 61.3713587981 L 1113.0959827914296 61.47916934301662 L 1113.0924055309636 61.58696910696859 L 1113.086443827658 61.69474731006935 L 1113.078098277679 61.8024931745884 L 1113.0673697155737 61.91019592602908 L 1113.0542592141899 62.017844794206 L 1113.0387680845665 62.125429014322044 L 1113.020897875804 62.232937828044854 L 1113.000650374908 62.34036048458265 L 1112.9780276066117 62.44768624175929 L 1112.9530318331733 62.55490436708851 L 1112.9256655541494 62.66200413884712 L 1112.8959315061447 62.76897484714718 L 1112.8638326625396 62.87580579500701 L 1112.8293722331914 62.982486299420856 L 1112.7925536641146 63.08900569242717 L 1112.7533806371355 63.19535332217542 L 1112.7118570695236 63.30151855399125 L 1112.6679871136016 63.40749077143996 L 1112.6217751563283 63.5132593773881 L 1112.573225818861 63.618813795063225 L 1112.522343956093 63.724143469111524 L 1112.4691346561679 63.82923786665337 L 1112.4136032399717 63.93408647833659 L 1112.3557552605998 64.03867881938739 L 1112.2955965028016 64.1430044306588 L 1112.2331329824028 64.24705287967667 L 1112.1683709457038 64.35081376168277 L 1112.1013168688537 64.45427670067541 L 1112.0319774572047 64.55743135044686 L 1111.9603596446402 64.66026739561813 L 1111.8864705928816 64.7627745526704 L 1111.8103176907723 64.86494257097338 L 1111.7319085535396 64.96676123381039 L 1111.6512510220316 65.06822035939997 L 1111.568353161934 65.16930980191414 L 1111.4832232629642 65.27001945249287 L 1111.3958698380409 65.37033924025505 L 1111.3063016224337 65.47025913330548 L 1111.2145275728894 65.56976913973813 L 1111.1205568667372 65.66885930863528 L 1111.0243989009687 65.7675197310626 L 1110.9260632913004 65.86574054106009 L 1110.8255598712117 65.96351191662859 L 1110.7228986909604 66.06082408071202 L 1110.6180900165793 66.15766730217506 L 1110.5111443288486 66.25403189677627 L 1110.4020723222477 66.3499082281365 L 1110.2908849038863 66.4452867087025 L 1110.1775931924137 66.54015780070569 L 1110.0622085169068 66.63451201711595 L 1109.9447424157368 66.72833992259025 L 1109.825206635416 66.82163213441623 L 1109.7036131294226 66.91437932345046 L 1109.5799740570062 67.00657221505134 L 1109.4543017819708 67.0982015900065 L 1109.3266088714392 67.18925828545483 L 1109.1969080945964 67.27973319580266 L 1109.0652124214114 67.36961727363435 L 1108.9315350213421 67.45890153061701 L 1108.7958892620172 67.54757703839935 L 1108.6582887078994 67.6356349295045 L 1108.5187471189295 67.72306639821673 L 1108.3772784491503 67.80986270146201 L 1108.2338968453105 67.89601515968236 L 1108.088616645451 67.98151515770375 L 1107.9414523774715 68.06635414559763 L 1107.7924187576753 68.15052363953589 L 1107.6415306893005 68.2340152226393 L 1107.4888032610281 68.31682054581911 L 1107.3342517454737 68.39893132861202 L 1107.1778915976602 68.48033936000816 L 1107.019738453472 68.56103649927225 L 1106.8598081280918 68.6410146767576 L 1106.6981166144185 68.72026589471311 L 1106.534680081469 68.79878222808303 L 1106.3695148727606 68.87655582529945 L 1106.2026375046764 68.95357890906746 L 1106.034064664814 69.02984377714286 L 1105.8638132103167 69.10534280310242 L 1105.6919001661886 69.18006843710643 L 1105.5183427235906 69.25401320665378 L 1105.3431582381222 69.32716971732913 L 1105.1663642280862 69.39953065354239 L 1104.987978372736 69.47108877926021 L 1104.8080185105089 69.54183693872967 L 1104.6265026372407 69.61176805719379 L 1104.4434489043679 69.68087514159897 L 1104.2588756171108 69.74915128129439 L 1104.0728012326447 69.81658964872294 L 1103.8852443582527 69.88318350010411 L 1103.696223749466 69.94892617610824 L 1103.5057583081882 70.01381110252252 L 1103.3138670808044 70.07783179090838 L 1103.1205692562776 70.14098183925032 L 1102.925884164229 70.20325493259614 L 1102.7298312730059 70.26464484368842 L 1102.5324301877338 70.32514543358717 L 1102.3337006483566 70.38475065228383 L 1102.1336625276629 70.44345453930622 L 1101.932335829298 70.50125122431453 L 1101.7297406857638 70.55813492768844 L 1101.5258973564062 70.61409996110503 L 1101.3208262253877 70.66914072810756 L 1101.114547799651 70.72325172466522 L 1100.9070827068667 70.77642753972344 L 1100.698451693371 70.82866285574504 L 1100.4886756220915 70.87995244924193 L 1100.2777754704605 70.9302911912975 L 1100.0657723283175 70.9796740480795 L 1099.8526873957999 71.0280960813434 L 1099.6385419812234 71.07555244892625 L 1099.4233574989512 71.12203840523081 L 1099.207155467252 71.16754930170019 L 1098.9899575061488 71.21208058728268 L 1098.7717853352567 71.25562780888683 L 1098.5526607716113 71.29818661182675 L 1098.332605727486 71.33975274025764 L 1098.1116422082018 71.38032203760127 L 1097.8897923099269 71.41989044696174 L 1097.6670782174658 71.45845401153106 L 1097.4435222020425 71.49600887498494 L 1097.2191466190718 71.5325512818683 L 1096.9939739059255 71.56807757797091 L 1096.768026579687 71.60258421069277 L 1096.541327234901 71.63606772939937 L 1096.3138985413125 71.66852478576672 L 1096.0857632416019 71.69995213411627 L 1095.8569441491084 71.73034663173934 L 1095.6274641455511 71.7597052392115 L 1095.397346178739 71.78802502069648 L 1095.166613260277 71.81530314423973 L 1094.9352884632647 71.84153688205163 L 1094.7033949199888 71.86672361078024 L 1094.4709558196107 71.8908608117737 L 1094.2379944058466 71.913946071332 L 1094.0045339746437 71.93597708094846 L 1093.7705978718507 71.95695163754044 L 1093.5362094908828 71.97686764366978 L 1093.3013922703828 71.99572310775245 L 1093.0661696918771 72.01351614425778 L 1092.8305652774275 72.03024497389691 L 1092.5946025872793 72.04590792380084 L 1092.3583052175045 72.06050342768764 L 1092.1216967976434 72.07403002601906 L 1091.8848009883409 72.08648636614654 L 1091.6476414789804 72.09787120244648 L 1091.4102419853152 72.1081833964447 L 1091.1726262470968 72.11742191693043 L 1090.9348180257011 72.12558584005929 L 1090.6968411017522 72.13267434944576 L 1090.4587192727438 72.13868673624485 L 1090.2204763506604 72.14362239922286 L 1089.9821361595962 72.14748084481762 L 1089.743722533371 72.1502616871878 L 1089.5052593131495 72.15196464825142 L 1089.2667703450543 72.15258955771385 L 1089.0282794777838 72.15213635308466 L 1088.789810560226 72.15060507968391 L 1088.5513874390738 72.14799589063767 L 1088.3130339564407 72.1443090468627 L 1088.0747739474764 72.13954491704027 L 1087.836631237983 72.1337039775794 L 1087.5986296420333 72.12678681256918 L 1087.3607929595885 72.11879411372033 L 1087.1231449741185 72.10972668029609 L 1086.885709450224 72.09958541903224 L 1086.6485101312594 72.08837134404646 L 1086.411570736959 72.07608557673689 L 1086.1749149610646 72.06272934567005 L 1085.9385664689569 72.04830398645788 L 1085.702548895288 72.0328109416243 L 1085.4668858416183 72.01625176046089 L 1085.2316008740572 71.99862809887196 L 1084.9967175209051 71.97994171920898 L 1084.762259270302 71.96019449009434 L 1084.5282495678769 71.9393883862345 L 1084.2947118144057 71.91752548822251 L 1084.0616693634686 71.89460798232996 L 1083.829145519117 71.87063816028832 L 1083.597163533541 71.84561841905983 L 1083.3657466047464 71.81955126059778 L 1083.134917874233 71.79243929159627 L 1082.9047004246813 71.7642852232296 L 1082.6751172776449 71.73509187088118 L 1082.4461913912467 71.7048621538619 L 1082.2179456578847 71.67359909511825 L 1081.990402901942 71.64130582093009 L 1081.7635858775047 71.6079855605979 L 1081.537517266086 71.57364164611994 L 1081.312219674359 71.53827751185906 L 1081.0877156318952 71.50189669419922 L 1080.8640275889113 71.46450283119185 L 1080.6411779140253 71.42609966219209 L 1080.4191888920193 71.38669102748484 L 1080.19808272161 71.34628086790075 L 1079.9778815132308 71.30487322442208 L 1079.7586072868185 71.26247223777868 L 1079.5402819696133 71.21908214803388 L 1079.322927393965 71.17470729416048 L 1079.10656529515 71.12935211360693 L 1078.8912173091976 71.08302114185344 L 1078.6769049707273 71.0357190119586 L 1078.4636497107942 70.987450454096 L 1078.2514728547467 70.93822029508118 L 1078.0403956200935 70.88803345788901 L 1077.8304391143822 70.8368949611614 L 1077.6216243330882 70.7848099187054 L 1077.413972157516 70.73178353898187 L 1077.2075033527096 70.67782112458457 L 1077.002238565378 70.62292807170999 L 1076.7981983218285 70.56710986961765 L 1076.5954030259156 70.51037210008127 L 1076.393872957 70.4527204368305 L 1076.19362826792 70.39416064498364 L 1075.9946889829787 70.33469858047107 L 1075.797074995938 70.27434018944969 L 1075.600806068032 70.2130915077083 L 1075.4059018259902 70.15095866006402 L 1075.212381760074 70.08794785974987 L 1075.0202652221294 70.02406540779336 L 1074.8295714236497 69.95931769238642 L 1074.6403194338557 69.89371118824668 L 1074.4525281777887 69.82725245596986 L 1074.266216434418 69.7599481413738 L 1074.0814028347627 69.69180497483389 L 1073.8981058600286 69.62282977060998 L 1073.7163438397604 69.55302942616503 L 1073.5361349500088 69.4824109214753 L 1073.3574972115125 69.41098131833243 L 1073.1804484878967 69.3387477596372 L 1073.0050064838858 69.26571746868528 L 1072.8311887435343 69.19189774844492 L 1072.6590126484714 69.1172959808266 L 1072.4884954161632 69.04191962594494 L 1072.3196540981905 68.96577622137262 L 1072.1525055785446 68.88887338138663 L 1071.9870665719382 68.81121879620687 L 1071.8233536221342 68.73282023122718 L 1071.6613831002908 68.6536855262387 L 1071.5011712033254 68.573822594646 L 1071.3427339522943 68.49323942267567 L 1071.1860871907907 68.41194406857777 L 1071.0312465833597 68.32994466181995 L 1070.8782276139334 68.24724940227456 L 1070.727045584281 68.16386655939866 L 1070.5777156124798 68.07980447140702 L 1070.4302526314023 67.99507154443839 L 1070.2846713872239 67.90967625171488 L 1070.1409864379473 67.8236271326946 L 1069.999212151948 67.73693279221771 L 1069.8593627065366 67.64960189964606 L 1069.721452086541 67.56164318799608 L 1069.5854940829079 67.47306545306569 L 1069.451502291325 67.38387755255452 L 1069.319490110859 67.29408840517834 L 1069.1894707426188 67.20370698977703 L 1069.0614571884323 67.11274234441683 L 1068.9354622495484 67.02120356548647 L 1068.811498525356 66.92909980678756 L 1068.6895784121243 66.83644027861922 L 1068.5697141017629 66.74323424685704 L 1068.4519175806029 66.64949103202653 L 1068.3362006281984 66.55522000837107 L 1068.2225748161484 66.46043060291444 L 1068.1110515069388 66.3651322945182 L 1068.0016418528082 66.2693346129338 L 1067.8943567946305 66.17304713784955 L 1067.7892070608223 66.07627949793272 L 1067.6862031662693 65.97904136986665 L 1067.585355411275 65.88134247738313 L 1067.4866738805308 65.78319259028999 L 1067.390168442108 65.68460152349414 L 1067.2958487464693 65.58557913602012 L 1067.2037242255064 65.48613533002413 L 1067.1138040915944 65.38628004980393 L 1067.0260973366712 65.2860232808043 L 1066.94061273134 65.18537504861862 L 1066.8573588239897 65.08434541798623 L 1066.7763439399419 64.982944491786 L 1066.697576180617 64.88118241002603 L 1066.6210634227257 64.77906934882972 L 1066.54681331748 64.67661551941809 L 1066.4748332898282 64.5738311670887 L 1066.4051305377136 64.47072657019112 L 1066.337712031353 64.36731203909913 L 1066.272584512541 64.26359791517966 L 1066.2097544939752 64.15959456975868 L 1066.149228258605 64.05531240308405 L 1066.0910118590036 63.95076184328555 L 1066.0351111167622 63.84595334533201 L 1065.9815316219087 63.74089738998592 L 1065.9302787323481 63.63560448275524 L 1065.881357573326 63.530085152842965 L 1065.8347730369185 63.42434995209415 L 1065.7905297815394 63.318409453940745 L 1065.748632231478 63.2122742523443 L 1065.7090845764542 63.105954960736526 L 1065.6718907712007 62.99946221095797 L 1065.6370545350667 62.892806652194885 L 1065.604579351647 62.78599894991426 L 1065.574468468433 62.679049784797314 L 1065.5467248964878 62.57196985167143 L 1065.5213514101454 62.464769858440704 L 1065.4983505467335 62.357460525015114 L 1065.477724606319 62.25005258223858 L 1065.459475651479 62.14255677081588 L 1065.4436055070935 62.03498384023857 L 1065.430115760164 61.92734454771006 L 1065.4190077596538 61.81964965706991 L 1065.4102826163537 61.71190993771744 L 1065.4039412027707 61.6041361635348 L 1065.399984153041 61.49633911180959 L 1065.3984118628664 61.38852956215717 L 1065.3992244894744 61.28071829544265 L 1065.402421951603 61.172916092702856 L 1065.4080039295086 61.06513373406823 L 1065.4159698649983 60.957381997684834 L 1065.426318961485 60.84967165863649 L 1065.4390501840678 60.74201348786736 L 1065.454162259635 60.6344182511048 L 1065.4716536769915 60.526896707782825 L 1065.4915226870103 60.41945960996616 L 1065.513767302807 60.31211770127506 L 1065.5383852999385 60.204881715810956 L 1065.5653742166255 60.097762377083015 L 1065.594731353999 59.99077039693585 L 1065.6264537763693 59.88391647447831 L 1065.6605383115211 59.7772112950136 L 1065.6969815510292 59.67066552897075 L 1065.7357798506 59.56428983083758 L 1065.7769293304357 59.45809483809524 L 1065.8204258756227 59.35209117015452 L 1065.8662651365428 59.24628942729389 L 1065.914442529308 59.14070018959944 L 1065.9649532362191 59.03533401590697 L 1066.0177922062478 58.93020144274604 L 1066.0729541555409 58.82531298328635 L 1066.1304335679495 58.72067912628645 L 1066.1902246955804 58.61631033504484 L 1066.2523215593703 58.51221704635366 L 1066.3167179496847 58.40840966945505 L 1066.3834074269384 58.30489858500019 L 1066.4523833222393 58.20169414401126 L 1066.523638738055 58.098806666846365 L 1066.5971665489037 57.996246442167475 L 1066.6729594020653 57.894023725911595 L 1066.7510097183178 57.79214874026516 L 1066.8313096926945 57.69063167264185 L 1066.913851295265 57.58948267466382 L 1066.9986262719378 57.488711861146584 L 1067.0856261452857 57.38832930908751 L 1067.1748422153942 57.28834505665816 L 1067.26626556073 57.18876910220045 L 1067.3598870390356 57.08961140322686 L 1067.4556972882408 56.99088187542464 L 1067.5536867274004 56.8925903916643 L 1067.6538455576522 56.794746781012314 L 1067.7561637631966 56.6973608277482 L 1067.8606311122985 56.60044227038614 L 1067.96723715831 56.5040008007011 L 1068.0759712407153 56.40804606275968 L 1068.1868224861967 56.31258765195572 L 1068.299779809722 56.217635114050736 L 1068.414831915653 56.12319794421941 L 1068.531967298875 56.029285586100016 L 1068.6511742459477 55.93590743085011 L 1068.772440836275 55.8430728162074 L 1068.8957549432994 55.75079102555599 L 1069.021104235713 55.65907128699804 L 1069.1484761786905 55.56792277243099 L 1069.2778580351444 55.47735459663031 L 1069.4092368669965 55.387375816338135 L 1069.542599536473 55.29799542935749 L 1069.6779327074184 55.20922237365261 L 1069.8152228466283 55.12106552645507 L 1069.954456225203 55.033533703376136 L 1070.095618919921 54.94663565752517 L 1070.2386968146302 54.86038007863435 L 1070.3836756016603 54.77477559218967 L 1070.5305407832536 54.689830758568455 L 1070.6792776730142 54.60555407218327 L 1070.8298713973772 54.52195396063252 L 1070.9823068970954 54.439038783857704 L 1071.1365689287463 54.35681683330739 L 1071.292642066255 54.27529633110813 L 1071.450510702438 54.19448542924221 L 1071.6101590505627 54.114392208732454 L 1071.771571145928 54.03502467883419 L 1071.9347308474582 53.95639077623426 L 1072.09962183932 53.878498364257396 L 1072.266227632551 53.801355232079885 L 1072.4345315667106 53.72496909395066 L 1072.6045168115459 53.649347588419886 L 1072.7761663686742 53.57449827757509 L 1072.9494630732825 53.50042864628498 L 1073.124389595845 53.42714610145097 L 1073.3009284438551 53.35465797126647 L 1073.4790619635753 53.28297150448409 L 1073.6587723418018 53.21209386969077 L 1073.8400416076468 53.14203215459092 L 1074.0228516343345 53.072793365297684 L 1074.2071841410147 53.00438442563227 L 1074.3930206945904 52.93681217643165 L 1074.580342711561 52.870083374864436 L 1074.769131459881 52.80420469375517 L 1074.9593680608327 52.739182720917064 L 1075.1510334909149 52.67502395849323 L 1075.344108583744 52.611734822306424 L 1075.5385740319716 52.54932164121754 L 1075.734410389215 52.48779065649267 L 1075.931598072002 52.427148021179015 L 1076.1301173617283 52.36739979948956 L 1076.3299484066301 52.3085519661967 L 1076.5310712237701 52.25061040603471 L 1076.7334657010338 52.19358091311133 L 1076.9371115991419 52.13746919032833 L 1077.1419885536748 52.08228084881122 L 1077.3480760771074 52.02802140734818 L 1077.5553535608594 51.974696291838114 L 1077.763800277355 51.922310834748146 L 1077.973395382096 51.87087027458034 L 1078.184117915747 51.82037975534783 L 1078.39594680623 51.770844326060484 L 1078.6088608708326 51.72226894021993 L 1078.8228388183256 51.674658455324284 L 1079.0378592510929 51.62801763238236 L 1079.25390066727 51.58235113543759 L 1079.4709414628958 51.5376635311016 L 1079.688959934071 51.49395928809759 L 1079.9079342791306 51.451242776813444 L 1080.1278426008223 51.409518268864694 L 1080.3486629084975 51.368789936667355 L 1080.5703731203091 51.32906185302072 L 1080.792951065421 51.29033799070003 L 1081.016374486224 51.252622222059266 L 1081.2406210405622 51.21591831864385 L 1081.4656683039673 51.18022995081354 L 1081.6914937719 51.14556068737539 L 1081.918074862002 51.11191399522683 L 1082.145388916353 51.079293239009054 L 1082.3734132037373 51.047701680770494 L 1082.6021249219157 51.01714247964064 L 1082.8315011999073 50.98761869151416 L 1083.0615191002753 50.95913326874524 L 1083.2921556214214 50.93168905985244 L 1083.523387699886 50.90528880923376 L 1083.7551922126534 50.87993515689227 L 1083.9875459794657 50.85563063817208 L 1084.22042576514 50.83237768350481 L 1084.4538082818915 50.81017861816654 L 1084.687670191663 50.78903566204531 L 1084.921988108459 50.768950929419105 L 1085.1567386006825 50.749926428744466 L 1085.39189819348 50.7319640624556 L 1085.6274433710885 50.71506562677416 L 1085.863350579186 50.69923281152964 L 1086.0995962272489 50.684467199990365 L 1086.3361566909086 50.6707702687052 L 1086.5730083143164 50.658143387355835 L 1086.810127412507 50.64658781861989 L 1087.0474902737685 50.63610471804463 L 1087.2850731620122 50.62669513393135 L 1087.5228523191477 50.61836000723063 L 1087.760803967457 50.61110017144819 L 1087.9989043119738 50.604916352561574 L 1088.2371295428618 50.5998091689475 L 1088.4754558377967 50.595779131320086 L 1088.7138593643479 50.592826642679725 L 1088.9523162823607 50.59095199827282 L 1089.1908027463426 50.59015538556226 L 1089.4292949078456 50.59043688420866 L 1089.6677689178525 50.59179646606236 L 1089.9062009291608 50.594233995166334 L 1090.1445670987682 50.59774922776969 L 1090.3828435902567 50.6023418123521 L 1090.621006576175 50.60801128965893 L 1090.8590322404236 50.61475709274719 L 1091.096896780634 50.622578547042174 L 1091.3345764105509 50.63147487040497 L 1091.5720473624087 50.64144517321068 L 1091.8092858893108 50.6524884584373 L 1092.0462682676018 50.66460362176552 L 1092.2829707992414 50.67778945168912 L 1092.5193698141736 50.69204462963607 L 1092.7554416726941 50.70736773010048 L 1092.9911627678139 50.72375722078505 L 1093.2265095276196 50.74121146275439 L 1093.4614584176313 50.759728710598836 L 1093.6959859431563 50.77930711260903 L 1093.930068651637 50.79994471096109 L 1094.1636831349977 50.821639441912396 L 1094.3968060319849 50.844389136007905 L 1094.6294140305029 50.86819151829718 L 1094.861483869946 50.893044208561825 L 1095.0929923435235 50.91894472155353 L 1095.3239163005808 50.94589046724256 L 1095.554232648915 50.973878751076825 L 1095.783918357083 51.00290677425126 L 1096.0129504567053 51.03297163398772 L 1096.241306044763 51.064070323825305 L 1096.4689622858875 51.09619973392093 L 1096.6958964146443 51.129356651360375 L 1096.9220857378098 51.16353776047952 L 1097.1475076366398 51.198739643195935 L 1097.372139569133 51.23495877935069 L 1097.5959590722825 51.27219154706035 L 1097.818943764325 51.31043422307917 L 1098.041071346977 51.349682983171405 L 1098.2623196076656 51.38993390249377 L 1098.4826664217487 51.43118295598788 L 1098.7020897547286 51.47342601878273 L 1098.9205676644551 51.51665886660727 L 1099.138078303319 51.56087717621274 L 1099.3545999204377 51.60607652580503 L 1099.5701108638302 51.65225239548683 L 1099.7845895825815 51.69940016770967 L 1099.9980146289984 51.74751512773561 L 1100.2103646607543 51.79659246410874 L 1100.421618443023 51.84662726913632 L 1100.6317548506022 51.89761453937955 L 1100.8407528700263 51.949549176153894 L 1101.0485916016673 52.00242598603895 L 1101.2552502618257 52.0562396813978 L 1101.4607081848073 52.11098488090573 L 1101.6649448249914 52.16665611008844 L 1101.8679397588837 52.22324780186939 L 1102.0696726871604 52.28075429712656 L 1102.2701234366964 52.339169845258354 L 1102.4692719625841 52.398488604758626 L 1102.6670983501367 52.458704643800864 L 1102.8635828168804 52.51981194083135 L 1103.058705714532 52.581804385171296 L 1103.2524475309647 52.64467577762793 L 1103.4447888921582 52.708419831114405 L 1103.6357105641366 52.77303017127848 L 1103.8251934548919 52.83850033713999 L 1104.0132186162928 52.90482378173691 L 1104.1997672459797 52.97199387278003 L 1104.3848206892455 53.040003893316246 L 1104.5683604408998 53.108847042400164 L 1104.7503681471205 53.17851643577425 L 1104.9308256072884 53.24900510655722 L 1105.1097147758082 53.32030600594074 L 1105.2870177639122 53.39241200389429 L 1105.4627168414488 53.465315889878156 L 1105.6367944386573 53.5390103735645 L 1105.8092331479224 53.61348808556637 L 1105.9800157255174 53.68874157817461 L 1106.1491250933268 53.76476332610268 L 1106.3165443405544 53.84154572723915 L 1106.4822567254153 53.91908110340788 L 1106.646245676809 53.99736170113587 L 1106.808494795977 54.07637969242858 L 1106.9689878581426 54.156127175552726 L 1107.1277088141333 54.236596175826456 L 1107.284641791986 54.3177786464168 L 1107.4397710985334 54.39966646914434 L 1107.593081220974 54.48225145529506 L 1107.7445568284238 54.56552534643915 L 1107.894182773448 54.6494798152569 L 1108.0419440935768 54.73410646637139 L 1108.1878260128012 54.81939683718802 L 1108.3318139430512 54.9053423987408 L 1108.4738934856532 54.99193455654518 L 1108.614050432772 55.079164651457546 L 1108.7522707688292 55.16702396054111 L 1108.8885406719066 55.25550369793815 L 1109.0228465151274 55.344595015748695 L 1109.1551748680192 55.43428900491518 L 1109.2855124978569 55.52457669611344 L 1109.4138463709862 55.615449060649595 L 1109.540163654127 55.706897011362926 L 1109.6644517156556 55.79891140353456 L 1109.78669812687 55.891483035801954 L 1109.9068906632308 55.98460265107904 L 1110.0250173055842 56.07826093748187 L 1110.141066241365 56.17244852925987 L 1110.255025865776 56.26715600773234 L 1110.3668847829495 56.36237390223035 L 1110.4766318070874 56.45809269104382 L 1110.5842559635785 56.55430280237361 L 1110.689746490097 56.65099461528878 L 1110.7930928376782 56.74815846068861 L 1110.894284671773 56.84578462226952 L 1110.993311873283 56.943863337496715 L 1111.09016453957 57.0423847985804 L 1111.1848329854483 57.14133915345658 L 1111.2773077441523 57.240716506772216 L 1111.367579568283 57.34050692087479 L 1111.4556394307333 57.44070041680606 L 1111.5414785255905 57.54128697529992 L 1111.6250882690163 57.64225653778434 L 1111.7064603001063 57.74359900738722 L 1111.7855864817252 57.84530424994605 L 1111.8624589013207 57.94736209502132 L 1111.9370698717148 58.04976233691358 L 1112.0094119318728 58.15249473568397 L 1112.079477847649 58.25554901817823 L 1112.14726061251 58.35891487905398 L 1112.212753448236 58.46258198181127 L 1112.275949805598 58.566539959826216 L 1112.3368433650126 58.67077841738765 L 1112.395428037175 58.77528693073668 L 1112.4516979636667 58.88005504910905 L 1112.505647517542 58.985072295780256 L 1112.55727130389 59.09032816911312 L 1112.606564160376 59.19581214360803 L 1112.6535211577543 59.301513670955444 L 1112.6981376003653 59.4074221810907 L 1112.7404090266014 59.513527083251056 L 1112.7803312093552 59.619817767034704 L 1112.8179001564417 59.72628360346185 L 1112.853112110998 59.832913946037564 L 1112.8859635518572 59.939698131816456 L 1112.916451193903 60.046625482468926 L 1112.9445719883968 60.153685305349015 L 1112.9703231232822 60.26086689456366 L 1112.9937020234672 60.36815953204325 L 1113.0147063510817 60.47555248861345 L 1113.0333340057098 60.5830350250681 L 1113.0495831246021 60.69059639324311 L 1113.06345208286 60.79822583709131 L 1113.0749394935992 60.905912593758 L 1113.0840442080885 61.01364589465726 L 1113.0907653158636 61.12141496654876 L 1113.0951021448197 61.22920903261514 L 1113.0970542612772 61.337017313539604 M 1113.0971752513333 95.6752857281 L 1113.0959827914296 95.78309627301661 L 1113.0924055309636 95.89089603696858 L 1113.086443827658 95.99867424006935 L 1113.078098277679 96.1064201045884 L 1113.0673697155737 96.21412285602908 L 1113.0542592141899 96.321771724206 L 1113.0387680845665 96.42935594432204 L 1113.020897875804 96.53686475804484 L 1113.000650374908 96.64428741458265 L 1112.9780276066117 96.75161317175929 L 1112.9530318331733 96.85883129708851 L 1112.9256655541494 96.96593106884711 L 1112.8959315061447 97.07290177714718 L 1112.8638326625396 97.17973272500701 L 1112.8293722331914 97.28641322942086 L 1112.7925536641146 97.39293262242717 L 1112.7533806371355 97.49928025217542 L 1112.7118570695236 97.60544548399125 L 1112.6679871136016 97.71141770143996 L 1112.6217751563283 97.8171863073881 L 1112.573225818861 97.92274072506322 L 1112.522343956093 98.02807039911151 L 1112.4691346561679 98.13316479665336 L 1112.4136032399717 98.23801340833658 L 1112.3557552605998 98.34260574938737 L 1112.2955965028016 98.4469313606588 L 1112.2331329824028 98.55097980967666 L 1112.1683709457038 98.65474069168278 L 1112.1013168688537 98.7582036306754 L 1112.0319774572047 98.86135828044685 L 1111.9603596446402 98.96419432561812 L 1111.8864705928816 99.0667014826704 L 1111.8103176907723 99.16886950097337 L 1111.7319085535396 99.27068816381038 L 1111.6512510220316 99.37214728939998 L 1111.568353161934 99.47323673191414 L 1111.4832232629642 99.57394638249288 L 1111.3958698380409 99.67426617025505 L 1111.3063016224337 99.77418606330548 L 1111.2145275728894 99.87369606973812 L 1111.1205568667372 99.97278623863527 L 1111.0243989009687 100.0714466610626 L 1110.9260632913004 100.1696674710601 L 1110.8255598712117 100.2674388466286 L 1110.7228986909604 100.36475101071201 L 1110.6180900165793 100.46159423217506 L 1110.5111443288486 100.55795882677627 L 1110.4020723222477 100.65383515813649 L 1110.2908849038863 100.74921363870249 L 1110.1775931924137 100.84408473070569 L 1110.0622085169068 100.93843894711594 L 1109.9447424157368 101.03226685259024 L 1109.825206635416 101.12555906441622 L 1109.7036131294226 101.21830625345046 L 1109.5799740570062 101.31049914505132 L 1109.4543017819708 101.4021285200065 L 1109.3266088714392 101.49318521545483 L 1109.1969080945964 101.58366012580265 L 1109.0652124214114 101.67354420363434 L 1108.9315350213421 101.762828460617 L 1108.7958892620172 101.85150396839936 L 1108.6582887078994 101.93956185950451 L 1108.5187471189295 102.02699332821673 L 1108.3772784491503 102.11378963146201 L 1108.2338968453105 102.19994208968237 L 1108.088616645451 102.28544208770374 L 1107.9414523774715 102.37028107559762 L 1107.7924187576753 102.45445056953588 L 1107.6415306893005 102.53794215263929 L 1107.4888032610281 102.6207474758191 L 1107.3342517454737 102.70285825861201 L 1107.1778915976602 102.78426629000816 L 1107.019738453472 102.86496342927225 L 1106.8598081280918 102.9449416067576 L 1106.6981166144185 103.02419282471311 L 1106.534680081469 103.10270915808303 L 1106.3695148727606 103.18048275529944 L 1106.2026375046764 103.25750583906745 L 1106.034064664814 103.33377070714286 L 1105.8638132103167 103.4092697331024 L 1105.6919001661886 103.48399536710642 L 1105.5183427235906 103.55794013665377 L 1105.3431582381222 103.63109664732913 L 1105.1663642280862 103.70345758354237 L 1104.987978372736 103.7750157092602 L 1104.8080185105089 103.84576386872968 L 1104.6265026372407 103.91569498719377 L 1104.4434489043679 103.98480207159896 L 1104.2588756171108 104.05307821129438 L 1104.0728012326447 104.12051657872294 L 1103.8852443582527 104.1871104301041 L 1103.696223749466 104.25285310610823 L 1103.5057583081882 104.31773803252251 L 1103.3138670808044 104.38175872090837 L 1103.1205692562776 104.44490876925032 L 1102.925884164229 104.50718186259614 L 1102.7298312730059 104.5685717736884 L 1102.5324301877338 104.62907236358716 L 1102.3337006483566 104.68867758228383 L 1102.1336625276629 104.7473814693062 L 1101.932335829298 104.80517815431453 L 1101.7297406857638 104.86206185768845 L 1101.5258973564062 104.91802689110501 L 1101.3208262253877 104.97306765810755 L 1101.114547799651 105.02717865466522 L 1100.9070827068667 105.08035446972343 L 1100.698451693371 105.13258978574503 L 1100.4886756220915 105.18387937924192 L 1100.2777754704605 105.23421812129749 L 1100.0657723283175 105.28360097807949 L 1099.8526873957999 105.33202301134341 L 1099.6385419812234 105.37947937892625 L 1099.4233574989512 105.4259653352308 L 1099.207155467252 105.4714762317002 L 1098.9899575061488 105.51600751728267 L 1098.7717853352567 105.55955473888682 L 1098.5526607716113 105.60211354182675 L 1098.332605727486 105.64367967025764 L 1098.1116422082018 105.68424896760128 L 1097.8897923099269 105.72381737696173 L 1097.6670782174658 105.76238094153106 L 1097.4435222020425 105.79993580498493 L 1097.2191466190718 105.83647821186828 L 1096.9939739059255 105.8720045079709 L 1096.768026579687 105.90651114069276 L 1096.541327234901 105.93999465939936 L 1096.3138985413125 105.97245171576672 L 1096.0857632416019 106.00387906411626 L 1095.8569441491084 106.03427356173933 L 1095.6274641455511 106.0636321692115 L 1095.397346178739 106.09195195069648 L 1095.166613260277 106.11923007423972 L 1094.9352884632647 106.14546381205162 L 1094.7033949199888 106.17065054078024 L 1094.4709558196107 106.1947877417737 L 1094.2379944058466 106.21787300133201 L 1094.0045339746437 106.23990401094846 L 1093.7705978718507 106.26087856754044 L 1093.5362094908828 106.28079457366978 L 1093.3013922703828 106.29965003775246 L 1093.0661696918771 106.31744307425777 L 1092.8305652774275 106.3341719038969 L 1092.5946025872793 106.34983485380084 L 1092.3583052175045 106.36443035768762 L 1092.1216967976434 106.37795695601905 L 1091.8848009883409 106.39041329614655 L 1091.6476414789804 106.40179813244647 L 1091.4102419853152 106.4121103264447 L 1091.1726262470968 106.42134884693041 L 1090.9348180257011 106.42951277005928 L 1090.6968411017522 106.43660127944577 L 1090.4587192727438 106.44261366624485 L 1090.2204763506604 106.44754932922287 L 1089.9821361595962 106.45140777481762 L 1089.743722533371 106.45418861718778 L 1089.5052593131495 106.45589157825142 L 1089.2667703450543 106.45651648771386 L 1089.0282794777838 106.45606328308465 L 1088.789810560226 106.4545320096839 L 1088.5513874390738 106.45192282063768 L 1088.3130339564407 106.44823597686269 L 1088.0747739474764 106.44347184704026 L 1087.836631237983 106.43763090757939 L 1087.5986296420333 106.43071374256917 L 1087.3607929595885 106.42272104372033 L 1087.1231449741185 106.41365361029608 L 1086.885709450224 106.40351234903224 L 1086.6485101312594 106.39229827404645 L 1086.411570736959 106.38001250673689 L 1086.1749149610646 106.36665627567004 L 1085.9385664689569 106.35223091645787 L 1085.702548895288 106.33673787162431 L 1085.4668858416183 106.32017869046089 L 1085.2316008740572 106.30255502887195 L 1084.9967175209051 106.28386864920897 L 1084.762259270302 106.26412142009434 L 1084.5282495678769 106.2433153162345 L 1084.2947118144057 106.22145241822251 L 1084.0616693634686 106.19853491232995 L 1083.829145519117 106.17456509028831 L 1083.597163533541 106.14954534905984 L 1083.3657466047464 106.12347819059778 L 1083.134917874233 106.09636622159626 L 1082.9047004246813 106.06821215322961 L 1082.6751172776449 106.03901880088118 L 1082.4461913912467 106.0087890838619 L 1082.2179456578847 105.97752602511825 L 1081.990402901942 105.94523275093007 L 1081.7635858775047 105.91191249059789 L 1081.537517266086 105.87756857611994 L 1081.312219674359 105.84220444185907 L 1081.0877156318952 105.8058236241992 L 1080.8640275889113 105.76842976119184 L 1080.6411779140253 105.73002659219209 L 1080.4191888920193 105.69061795748485 L 1080.19808272161 105.65020779790075 L 1079.9778815132308 105.60880015442207 L 1079.7586072868185 105.56639916777867 L 1079.5402819696133 105.52300907803387 L 1079.322927393965 105.47863422416049 L 1079.10656529515 105.43327904360692 L 1078.8912173091976 105.38694807185344 L 1078.6769049707273 105.33964594195861 L 1078.4636497107942 105.291377384096 L 1078.2514728547467 105.24214722508117 L 1078.0403956200935 105.19196038788901 L 1077.8304391143822 105.1408218911614 L 1077.6216243330882 105.08873684870541 L 1077.413972157516 105.03571046898188 L 1077.2075033527096 104.98174805458457 L 1077.002238565378 104.92685500170998 L 1076.7981983218285 104.87103679961766 L 1076.5954030259156 104.81429903008126 L 1076.393872957 104.7566473668305 L 1076.19362826792 104.69808757498365 L 1075.9946889829787 104.63862551047107 L 1075.797074995938 104.57826711944969 L 1075.600806068032 104.51701843770829 L 1075.4059018259902 104.45488559006402 L 1075.212381760074 104.39187478974986 L 1075.0202652221294 104.32799233779335 L 1074.8295714236497 104.26324462238642 L 1074.6403194338557 104.19763811824667 L 1074.4525281777887 104.13117938596986 L 1074.266216434418 104.0638750713738 L 1074.0814028347627 103.99573190483389 L 1073.8981058600286 103.92675670060999 L 1073.7163438397604 103.85695635616503 L 1073.5361349500088 103.7863378514753 L 1073.3574972115125 103.71490824833242 L 1073.1804484878967 103.64267468963719 L 1073.0050064838858 103.56964439868527 L 1072.8311887435343 103.4958246784449 L 1072.6590126484714 103.4212229108266 L 1072.4884954161632 103.34584655594495 L 1072.3196540981905 103.26970315137261 L 1072.1525055785446 103.19280031138662 L 1071.9870665719382 103.11514572620688 L 1071.8233536221342 103.03674716122718 L 1071.6613831002908 102.9576124562387 L 1071.5011712033254 102.87774952464599 L 1071.3427339522943 102.79716635267567 L 1071.1860871907907 102.71587099857777 L 1071.0312465833597 102.63387159181995 L 1070.8782276139334 102.55117633227457 L 1070.727045584281 102.46779348939864 L 1070.5777156124798 102.383731401407 L 1070.4302526314023 102.29899847443839 L 1070.2846713872239 102.21360318171489 L 1070.1409864379473 102.12755406269459 L 1069.999212151948 102.04085972221772 L 1069.8593627065366 101.95352882964605 L 1069.721452086541 101.86557011799609 L 1069.5854940829079 101.77699238306568 L 1069.451502291325 101.68780448255453 L 1069.319490110859 101.59801533517833 L 1069.1894707426188 101.50763391977702 L 1069.0614571884323 101.41666927441683 L 1068.9354622495484 101.32513049548646 L 1068.811498525356 101.23302673678755 L 1068.6895784121243 101.14036720861921 L 1068.5697141017629 101.04716117685703 L 1068.4519175806029 100.95341796202653 L 1068.3362006281984 100.85914693837105 L 1068.2225748161484 100.76435753291443 L 1068.1110515069388 100.66905922451821 L 1068.0016418528082 100.5732615429338 L 1067.8943567946305 100.47697406784954 L 1067.7892070608223 100.3802064279327 L 1067.6862031662693 100.28296829986664 L 1067.585355411275 100.18526940738312 L 1067.4866738805308 100.08711952028997 L 1067.390168442108 99.98852845349413 L 1067.2958487464693 99.8895060660201 L 1067.2037242255064 99.79006226002413 L 1067.1138040915944 99.69020697980392 L 1067.0260973366712 99.5899502108043 L 1066.94061273134 99.48930197861863 L 1066.8573588239897 99.38827234798623 L 1066.7763439399419 99.28687142178599 L 1066.697576180617 99.18510934002603 L 1066.6210634227257 99.08299627882971 L 1066.54681331748 98.98054244941808 L 1066.4748332898282 98.87775809708869 L 1066.4051305377136 98.7746535001911 L 1066.337712031353 98.67123896909912 L 1066.272584512541 98.56752484517966 L 1066.2097544939752 98.46352149975867 L 1066.149228258605 98.35923933308405 L 1066.0910118590036 98.25468877328554 L 1066.0351111167622 98.14988027533201 L 1065.9815316219087 98.04482431998592 L 1065.9302787323481 97.93953141275524 L 1065.881357573326 97.83401208284296 L 1065.8347730369185 97.72827688209414 L 1065.7905297815394 97.62233638394075 L 1065.748632231478 97.5162011823443 L 1065.7090845764542 97.40988189073651 L 1065.6718907712007 97.30338914095798 L 1065.6370545350667 97.19673358219488 L 1065.604579351647 97.08992587991426 L 1065.574468468433 96.9829767147973 L 1065.5467248964878 96.87589678167143 L 1065.5213514101454 96.7686967884407 L 1065.4983505467335 96.66138745501512 L 1065.477724606319 96.55397951223858 L 1065.459475651479 96.44648370081588 L 1065.4436055070935 96.33891077023856 L 1065.430115760164 96.23127147771005 L 1065.4190077596538 96.1235765870699 L 1065.4102826163537 96.01583686771744 L 1065.4039412027707 95.90806309353479 L 1065.399984153041 95.80026604180959 L 1065.3984118628664 95.69245649215716" stroke-miterlimit="10" stroke-width="2.7769845610000004" stroke-dasharray=""/></g><g><g/><text fill="black" stroke="none" font-family="sans-serif" font-size="11pt" font-style="normal" font-weight="normal" text-decoration="normal" x="1063.7477784333332" y="123.98419304699999" text-anchor="start" dominant-baseline="alphabetic" xml:space="preserve">Serveur</text></g></g><g><path fill="white" stroke="black" paint-order="fill stroke markers" d=" M 395.06895698333335 182.790924927 L 411.40416028333334 182.790924927 L 411.40416028333334 862.335382207 L 395.06895698333335 862.335382207 L 395.06895698333335 182.790924927" stroke-miterlimit="10" stroke-width="1.3612669416666667" stroke-dasharray=""/><path fill="white" stroke="black" paint-order="fill stroke markers" d=" M 703.9647024166666 182.790924927 L 720.2999057166667 182.790924927 L 720.2999057166667 1061.6248624669997 L 703.9647024166666 1061.6248624669997 L 703.9647024166666 182.790924927" stroke-miterlimit="10" stroke-width="1.3612669416666667" stroke-dasharray=""/><g><g><rect fill="white" stroke="none" x="169.8384054216667" y="161.555160637" width="128.90056099" height="21.23576429"/></g><text fill="black" stroke="none" font-family="sans-serif" font-size="11pt" font-style="normal" font-weight="normal" text-decoration="normal" x="172.28868591666668" y="176.25684360699998" text-anchor="start" dominant-baseline="alphabetic" xml:space="preserve">clique sur un perso</text></g><g><path fill="none" stroke="black" paint-order="fill stroke markers" d=" M 73.50841485 182.790924927 L 381.6196395996667 182.790924927" stroke-miterlimit="10" stroke-width="1.3612669416666667" stroke-dasharray=""/><g transform="translate(395.06895698333335,182.790924927) translate(-395.06895698333335,-182.790924927)"><path fill="black" stroke="none" paint-order="stroke fill markers" d=" M 381.4562875666667 175.98459021866665 L 395.06895698333335 182.790924927 L 381.4562875666667 189.59725963533333 Z"/></g></g><g><g><rect fill="white" stroke="none" x="430.734150855" y="207.29372987699998" width="158.90056099" height="21.23576429"/></g><text fill="black" stroke="none" font-family="sans-serif" font-size="11pt" font-style="normal" font-weight="normal" text-decoration="normal" x="433.18443135" y="221.99541284699995" text-anchor="start" dominant-baseline="alphabetic" xml:space="preserve">ajoute perso a selection</text></g><g><path fill="none" stroke="black" paint-order="fill stroke markers" d=" M 411.40416028333334 228.529494167 L 476.74497348333335 228.529494167 L 476.74497348333335 249.765258457 L 424.853477667 249.765258457" stroke-miterlimit="10" stroke-width="1.3612669416666667" stroke-dasharray=""/><g transform="translate(411.40416028333334,249.765258457) translate(-411.40416028333334,-249.765258457)"><path fill="black" stroke="none" paint-order="stroke fill markers" d=" M 425.0168297 242.95892374866665 L 411.40416028333334 249.765258457 L 425.0168297 256.5715931653333 Z"/></g></g><g><g><rect fill="white" stroke="none" x="92.83840542166668" y="274.26806340699994" width="282.90056099" height="21.23576429"/></g><text fill="black" stroke="none" font-family="sans-serif" font-size="11pt" font-style="normal" font-weight="normal" text-decoration="normal" x="95.28868591666668" y="288.9697463769999" text-anchor="start" dominant-baseline="alphabetic" xml:space="preserve">affiche choix batiment(commandes_perso)</text></g><g><path fill="none" stroke="black" paint-order="fill stroke markers" d=" M 395.06895698333335 295.50382769699996 L 86.95773223366666 295.50382769699996" stroke-miterlimit="10" stroke-width="1.3612669416666667" stroke-dasharray=""/><g transform="translate(73.50841485,295.50382769699996) translate(-73.50841485,-295.50382769699996)"><path fill="black" stroke="none" paint-order="stroke fill markers" d=" M 87.12108426666666 288.6974929886666 L 73.50841485 295.50382769699996 L 87.12108426666666 302.3101624053333 Z"/></g></g><g><g><rect fill="white" stroke="none" x="125.33840542166668" y="320.00663264699995" width="217.90056099" height="21.23576429"/></g><text fill="black" stroke="none" font-family="sans-serif" font-size="11pt" font-style="normal" font-weight="normal" text-decoration="normal" x="127.78868591666668" y="334.7083156169999" text-anchor="start" dominant-baseline="alphabetic" xml:space="preserve">clique sur choix batiment(widget)</text></g><g><path fill="none" stroke="black" paint-order="fill stroke markers" d=" M 73.50841485 341.24239693699997 L 381.6196395996667 341.24239693699997" stroke-miterlimit="10" stroke-width="1.3612669416666667" stroke-dasharray=""/><g transform="translate(395.06895698333335,341.24239693699997) translate(-395.06895698333335,-341.24239693699997)"><path fill="black" stroke="none" paint-order="stroke fill markers" d=" M 381.4562875666667 334.43606222866663 L 395.06895698333335 341.24239693699997 L 381.4562875666667 348.0487316453333 Z"/></g></g><g><g><rect fill="white" stroke="none" x="430.734150855" y="365.74520188699995" width="174.90056099" height="21.23576429"/></g><text fill="black" stroke="none" font-family="sans-serif" font-size="11pt" font-style="normal" font-weight="normal" text-decoration="normal" x="433.18443135" y="380.44688485699993" text-anchor="start" dominant-baseline="alphabetic" xml:space="preserve">bind clique a batir_artefact</text></g><g><path fill="none" stroke="black" paint-order="fill stroke markers" d=" M 411.40416028333334 386.9809661769999 L 476.74497348333335 386.9809661769999 L 476.74497348333335 408.21673046699993 L 424.853477667 408.21673046699993" stroke-miterlimit="10" stroke-width="1.3612669416666667" stroke-dasharray=""/><g transform="translate(411.40416028333334,408.21673046699993) translate(-411.40416028333334,-408.21673046699993)"><path fill="black" stroke="none" paint-order="stroke fill markers" d=" M 425.0168297 401.4103957586666 L 411.40416028333334 408.21673046699993 L 425.0168297 415.0230651753333 Z"/></g></g><g><g><rect fill="white" stroke="none" x="129.3384054216667" y="432.7195354169999" width="209.90056099" height="21.23576429"/></g><text fill="black" stroke="none" font-family="sans-serif" font-size="11pt" font-style="normal" font-weight="normal" text-decoration="normal" x="131.78868591666668" y="447.4212183869999" text-anchor="start" dominant-baseline="alphabetic" xml:space="preserve">clique sur map (batir_artefact())</text></g><g><path fill="none" stroke="black" paint-order="fill stroke markers" d=" M 73.50841485 453.95529970699994 L 381.6196395996667 453.95529970699994" stroke-miterlimit="10" stroke-width="1.3612669416666667" stroke-dasharray=""/><g transform="translate(395.06895698333335,453.95529970699994) translate(-395.06895698333335,-453.95529970699994)"><path fill="black" stroke="none" paint-order="stroke fill markers" d=" M 381.4562875666667 447.1489649986666 L 395.06895698333335 453.95529970699994 L 381.4562875666667 460.7616344153333 Z"/></g></g><g><g><rect fill="white" stroke="none" x="430.734150855" y="478.458104657" width="255.90056099" height="21.23576429"/></g><text fill="black" stroke="none" font-family="sans-serif" font-size="11pt" font-style="normal" font-weight="normal" text-decoration="normal" x="433.18443135" y="493.15978762699996" text-anchor="start" dominant-baseline="alphabetic" xml:space="preserve">Check si ressources requises en main</text></g><g><path fill="none" stroke="black" paint-order="fill stroke markers" d=" M 411.40416028333334 499.69386894699994 L 476.74497348333335 499.69386894699994 L 476.74497348333335 520.929633237 L 424.853477667 520.929633237" stroke-miterlimit="10" stroke-width="1.3612669416666667" stroke-dasharray=""/><g transform="translate(411.40416028333334,520.929633237) translate(-411.40416028333334,-520.929633237)"><path fill="black" stroke="none" paint-order="stroke fill markers" d=" M 425.0168297 514.1232985286666 L 411.40416028333334 520.929633237 L 425.0168297 527.7359679453333 Z"/></g></g><g><g><rect fill="white" stroke="none" x="134.8384054216667" y="589.5374870969999" width="198.90056099" height="21.23576429"/></g><text fill="black" stroke="none" font-family="sans-serif" font-size="11pt" font-style="normal" font-weight="normal" text-decoration="normal" x="137.28868591666668" y="604.2391700669999" text-anchor="start" dominant-baseline="alphabetic" xml:space="preserve">print(ressources insufisantes)</text></g><g><path fill="none" stroke="black" paint-order="fill stroke markers" d=" M 395.06895698333335 610.773251387 L 86.95773223366666 610.773251387" stroke-miterlimit="10" stroke-width="1.3612669416666667" stroke-dasharray=""/><g transform="translate(73.50841485,610.773251387) translate(-73.50841485,-610.773251387)"><path fill="black" stroke="none" paint-order="stroke fill markers" d=" M 87.12108426666666 603.9669166786666 L 73.50841485 610.773251387 L 87.12108426666666 617.5795860953333 Z"/></g></g><g><g><rect fill="white" stroke="none" x="430.734150855" y="703.883910197" width="189.90056099" height="21.23576429"/></g><text fill="black" stroke="none" font-family="sans-serif" font-size="11pt" font-style="normal" font-weight="normal" text-decoration="normal" x="433.18443135" y="718.585593167" text-anchor="start" dominant-baseline="alphabetic" xml:space="preserve">prochaineaction = choixUser</text></g><g><path fill="none" stroke="black" paint-order="fill stroke markers" d=" M 411.40416028333334 725.119674487 L 476.74497348333335 725.119674487 L 476.74497348333335 746.355438777 L 424.853477667 746.355438777" stroke-miterlimit="10" stroke-width="1.3612669416666667" stroke-dasharray=""/><g transform="translate(411.40416028333334,746.355438777) translate(-411.40416028333334,-746.355438777)"><path fill="black" stroke="none" paint-order="stroke fill markers" d=" M 425.0168297 739.5491040686667 L 411.40416028333334 746.355438777 L 425.0168297 753.1617734853334 Z"/></g></g><g><g><rect fill="white" stroke="none" x="107.83840542166668" y="795.361048677" width="252.90056099" height="21.23576429"/></g><text fill="black" stroke="none" font-family="sans-serif" font-size="11pt" font-style="normal" font-weight="normal" text-decoration="normal" x="110.28868591666668" y="810.062731647" text-anchor="start" dominant-baseline="alphabetic" xml:space="preserve">clique droit sur emplacement batiment</text></g><g><path fill="none" stroke="black" paint-order="fill stroke markers" d=" M 73.50841485 816.596812967 L 381.6196395996667 816.596812967" stroke-miterlimit="10" stroke-width="1.3612669416666667" stroke-dasharray=""/><g transform="translate(395.06895698333335,816.596812967) translate(-395.06895698333335,-816.596812967)"><path fill="black" stroke="none" paint-order="stroke fill markers" d=" M 381.4562875666667 809.7904782586667 L 395.06895698333335 816.596812967 L 381.4562875666667 823.4031476753333 Z"/></g></g><g><g><rect fill="white" stroke="none" x="430.73415085499994" y="841.0996179169999" width="253.90056099" height="21.23576429"/></g><text fill="black" stroke="none" font-family="sans-serif" font-size="11pt" font-style="normal" font-weight="normal" text-decoration="normal" x="433.18443134999995" y="855.8013008869999" text-anchor="start" dominant-baseline="alphabetic" xml:space="preserve">ajoute action batir a actions_requises[]</text></g><g><path fill="none" stroke="black" paint-order="fill stroke markers" d=" M 411.40416028333334 862.335382207 L 690.5153850329999 862.335382207" stroke-miterlimit="10" stroke-width="1.3612669416666667" stroke-dasharray=""/><g transform="translate(703.9647024166666,862.335382207) translate(-703.9647024166666,-862.335382207)"><path fill="black" stroke="none" paint-order="stroke fill markers" d=" M 690.3520329999999 855.5290474986666 L 703.9647024166666 862.335382207 L 690.3520329999999 869.1417169153333 Z"/></g></g><g><g><rect fill="white" stroke="none" x="739.6298962883334" y="886.8381871569999" width="343.90056099" height="21.23576429"/></g><text fill="black" stroke="none" font-family="sans-serif" font-size="11pt" font-style="normal" font-weight="normal" text-decoration="normal" x="742.0801767833334" y="901.5398701269999" text-anchor="start" dominant-baseline="alphabetic" xml:space="preserve">dans boucle transfert actions_requises dans actions</text></g><g><path fill="none" stroke="black" paint-order="fill stroke markers" d=" M 720.2999057166667 908.0739514469999 L 785.6407189166666 908.0739514469999 L 785.6407189166666 929.3097157369999 L 733.7492231003333 929.3097157369999" stroke-miterlimit="10" stroke-width="1.3612669416666667" stroke-dasharray=""/><g transform="translate(720.2999057166667,929.3097157369999) translate(-720.2999057166667,-929.3097157369999)"><path fill="black" stroke="none" paint-order="stroke fill markers" d=" M 733.9125751333333 922.5033810286666 L 720.2999057166667 929.3097157369999 L 733.9125751333333 936.1160504453333 Z"/></g></g><g><g><rect fill="white" stroke="none" x="809.8235615799999" y="953.8125206869998" width="189.90056099" height="21.23576429"/></g><text fill="black" stroke="none" font-family="sans-serif" font-size="11pt" font-style="normal" font-weight="normal" text-decoration="normal" x="812.273842075" y="968.5142036569998" text-anchor="start" dominant-baseline="alphabetic" xml:space="preserve">envoi l'iteration et les actions</text></g><g><path fill="none" stroke="black" paint-order="fill stroke markers" d=" M 720.2999057166667 975.0482849769999 L 1075.7984610496665 975.0482849769999" stroke-miterlimit="10" stroke-width="1.3612669416666667" stroke-dasharray=""/><g transform="translate(1089.2477784333332,975.0482849769999) translate(-1089.2477784333332,-975.0482849769999)"><path fill="black" stroke="none" paint-order="stroke fill markers" d=" M 1075.6351090166665 968.2419502686665 L 1089.2477784333332 975.0482849769999 L 1075.6351090166665 981.8546196853332 Z"/></g></g><g><g><rect fill="white" stroke="none" x="792.3235615799999" y="999.5510899269998" width="224.90056099" height="21.23576429"/></g><text fill="black" stroke="none" font-family="sans-serif" font-size="11pt" font-style="normal" font-weight="normal" text-decoration="normal" x="794.773842075" y="1014.2527728969998" text-anchor="start" dominant-baseline="alphabetic" xml:space="preserve">renvoi si jouer et les actions a jour</text></g><g><path fill="none" stroke="black" paint-order="fill stroke markers" d=" M 1089.2477784333332 1020.7868542169998 L 733.7492231003333 1020.7868542169998" stroke-miterlimit="10" stroke-width="1.3612669416666667" stroke-dasharray=""/><g transform="translate(720.2999057166667,1020.7868542169998) translate(-720.2999057166667,-1020.7868542169998)"><path fill="black" stroke="none" paint-order="stroke fill markers" d=" M 733.9125751333333 1013.9805195086665 L 720.2999057166667 1020.7868542169998 L 733.9125751333333 1027.5931889253332 Z"/></g></g><g><g/><path fill="none" stroke="black" paint-order="fill stroke markers" d=" M 16.335203299999996 545.432438187 L 460.40977018333336 545.432438187 L 460.40977018333336 635.276056337 L 16.335203299999996 635.276056337 L 16.335203299999996 545.432438187 Z" stroke-miterlimit="10" stroke-width="2.3336004714285714" stroke-dasharray=""/><path fill="white" stroke="black" paint-order="fill stroke markers" d=" M 16.335203299999996 545.432438187 L 16.335203299999996 565.034682147 L 119.0056099 565.034682147 L 128.80673188 555.233560167 L 128.80673188 545.432438187 L 16.335203299999996 545.432438187" stroke-miterlimit="10" stroke-width="2.3336004714285714" stroke-dasharray=""/><text fill="black" stroke="none" font-family="sans-serif" font-size="8.8pt" font-style="normal" font-weight="bold" text-decoration="normal" x="32.67040659999999" y="558.500600827" text-anchor="start" dominant-baseline="alphabetic" xml:space="preserve">expandable-</text><g><rect fill="white" stroke="none" x="142.691654685" y="546.739254451" width="51.90056099" height="16.988611432000003"/></g><text fill="black" stroke="none" font-family="sans-serif" font-size="8.8pt" font-style="normal" font-weight="bold" text-decoration="normal" x="145.14193518" y="558.500600827" text-anchor="start" dominant-baseline="alphabetic" xml:space="preserve">[negatif]</text></g><g><g/><path fill="none" stroke="black" paint-order="fill stroke markers" d=" M 346.0633470833333 659.778861287 L 626.3520330000001 659.778861287 L 626.3520330000001 770.8582437270001 L 346.0633470833333 770.8582437270001 L 346.0633470833333 659.778861287 Z" stroke-miterlimit="10" stroke-width="2.3336004714285714" stroke-dasharray=""/><path fill="white" stroke="black" paint-order="fill stroke markers" d=" M 346.0633470833333 659.778861287 L 346.0633470833333 679.381105247 L 448.7337536833333 679.381105247 L 458.5348756633333 669.579983267 L 458.5348756633333 659.778861287 L 346.0633470833333 659.778861287" stroke-miterlimit="10" stroke-width="2.3336004714285714" stroke-dasharray=""/><text fill="black" stroke="none" font-family="sans-serif" font-size="8.8pt" font-style="normal" font-weight="bold" text-decoration="normal" x="362.3985503833333" y="672.847023927" text-anchor="start" dominant-baseline="alphabetic" xml:space="preserve">expandable-</text><g><rect fill="white" stroke="none" x="472.4197984683333" y="661.085677551" width="47.90056099" height="16.988611432000003"/></g><text fill="black" stroke="none" font-family="sans-serif" font-size="8.8pt" font-style="normal" font-weight="bold" text-decoration="normal" x="474.8700789633333" y="672.847023927" text-anchor="start" dominant-baseline="alphabetic" xml:space="preserve">[positif]</text></g></g><g/><g/><g/><g/></g></svg>