<svg version="1.1" xmlns="http://www.w3.org/2000/svg" xmlns:xlink="http://www.w3.org/1999/xlink" width="2072" height="1519"><desc>title%20Placement%20d'un%20batiment%0A%0Aactor%20User%0A%0AUser-%3EVue%3A%20clique%20sur%20un%20perso%0Aactivate%20Vue%0Acontrol%20Controleur%0Aactivate%20Controleur%0AVue-%3EVue%3Aajoute%20perso%20a%20selection%0AVue-%3EUser%3Aaffiche%20choix%20batiment(commandes_perso)%0AUser-%3EVue%3Aclique%20sur%20choix%20batiment(widget)%0AVue-%3EVue%3A%20bind%20clique%20a%20batir_artefact%0AUser-%3EVue%3A%20clique%20sur%20map%20(batir_artefact())%0AVue-%3EVue%3A%20Check%20si%20ressources%20requises%20en%20main%0Aexpandable%E2%88%92%20negatif%0AVue-%3EUser%3A%20print(ressources%20insufisantes)%0Aend%0Aexpandable-%20positif%0AVue-%3EVue%3A%20prochaineaction%20%3D%20choixUser%0Aend%0AUser-%3EVue%3A%20clique%20droit%20sur%20emplacement%20batiment%0AVue-%3EControleur%3A%20ajoute%20action%20batir%20a%20actions_requises%5B%5D%0Adeactivate%20Vue%0AControleur-%3EControleur%3A%20dans%20boucle%20transfert%20actions_requises%20dans%20actions%0Adatabase%20Serveur%0AControleur-%3EServeur%3A%20envoi%20l'iteration%20et%20les%20actions%0AServeur-%3EControleur%3A%20renvoi%20si%20jouer%20et%20les%20actions%20a%20jour%0AControleur-%3EModele%2FPartie%3A%20ajouter_actions_a_faire(les%20actions%20renvoyer%20par%20le%20serveur%20contenant%20nos%20actions)%0AControleur-%3EModele%2FPartie%3A%20jouer_prochain_coup(iteration)%0AModele%2FPartie-%3EJoueur%3A%20jouer_prochain_coup()%0AJoueur-%3EPerso%3A%20jouer_prochain_coup()%0APerso-%3E%20Perso%3A%20ciblersiteconstruction%0Aaboxright%20left%20of%20Perso%3A%20bouger()%0Aaboxleft%20right%20of%20Perso%3A%20if%20bouger()%20%3D%20rendu%20construirebatiment()%0APerso-%3EPerso%3A%0A</desc><defs/><g><g/><g/><g/><g/><g/><g/><g/><g/><g/><g/><g/><g/><g/><g/><g/><g/><g/><g/><g/><g/><g/><g/><g/><g/><g/><g/><g><rect fill="white" stroke="none" x="0" y="0" width="2072" height="1519"/></g><g><text fill="black" stroke="none" font-family="sans-serif" font-size="16.5pt" font-style="normal" font-weight="normal" text-decoration="normal" x="915.6214552895638" y="24.50280495" text-anchor="start" dominant-baseline="alphabetic" xml:space="preserve">Placement d'un batiment</text></g><g/><g><path fill="none" stroke="black" paint-order="fill stroke markers" d=" M 73.50841485 129.701514202 L 73.50841485 1519.8273150319997" stroke-miterlimit="10" stroke-width="1.3612669416666667" stroke-dasharray="12.565541,5.445067766666667"/><path fill="none" stroke="black" paint-order="fill stroke markers" d=" M 403.23655863333335 129.701514202 L 403.23655863333335 1519.8273150319997" stroke-miterlimit="10" stroke-width="1.3612669416666667" stroke-dasharray="12.565541,5.445067766666667"/><path fill="none" stroke="black" paint-order="fill stroke markers" d=" M 712.1323040666666 129.701514202 L 712.1323040666666 1519.8273150319997" stroke-miterlimit="10" stroke-width="1.3612669416666667" stroke-dasharray="12.565541,5.445067766666667"/><path fill="none" stroke="black" paint-order="fill stroke markers" d=" M 1089.2477784333332 129.701514202 L 1089.2477784333332 1519.8273150319997" stroke-miterlimit="10" stroke-width="1.3612669416666667" stroke-dasharray="12.565541,5.445067766666667"/><path fill="none" stroke="black" paint-order="fill stroke markers" d=" M 1376.5280495 129.701514202 L 1376.5280495 1519.8273150319997" stroke-miterlimit="10" stroke-width="1.3612669416666667" stroke-dasharray="12.565541,5.445067766666667"/><path fill="none" stroke="black" paint-order="fill stroke markers" d=" M 1566.0885916333332 129.701514202 L 1566.0885916333332 1519.8273150319997" stroke-miterlimit="10" stroke-width="1.3612669416666667" stroke-dasharray="12.565541,5.445067766666667"/><path fill="none" stroke="black" paint-order="fill stroke markers" d=" M 1755.6491337666664 129.701514202 L 1755.6491337666664 1519.8273150319997" stroke-miterlimit="10" stroke-width="1.3612669416666667" stroke-dasharray="12.565541,5.445067766666667"/></g><g><g><path fill="white" stroke="black" paint-order="fill stroke markers" d=" M 82.819480731 60.60360424300001 A 9.311065881 9.311065881 0 1 1 82.81947607546743 60.594293178670846 M 73.50841485 69.91467012400001 L 73.50841485 89.84361815000001 M 61.747068473999995 77.102159576 L 85.26976122599999 77.102159576 M 73.50841485 89.84361815000001 L 61.747068473999995 108.465749912 M 73.50841485 89.84361815000001 L 85.26976122599999 108.465749912" stroke-miterlimit="10" stroke-width="2.7769845610000004" stroke-dasharray=""/></g><g><g/><text fill="black" stroke="none" font-family="sans-serif" font-size="11pt" font-style="normal" font-weight="normal" text-decoration="normal" x="58.008414849999994" y="124.800953212" text-anchor="start" dominant-baseline="alphabetic" xml:space="preserve">User</text></g><path fill="none" stroke="none"/><g><path fill="white" stroke="black" paint-order="fill stroke markers" d=" M 373.5128630528333 85.596465292 L 432.9602542138333 85.596465292 L 432.9602542138333 129.701514202 L 373.5128630528333 129.701514202 L 373.5128630528333 85.596465292 Z" stroke-miterlimit="10" stroke-width="2.613632528" stroke-dasharray=""/></g><g><g/><text fill="black" stroke="none" font-family="sans-serif" font-size="11pt" font-style="normal" font-weight="normal" text-decoration="normal" x="391.23655863333335" y="113.36631090200001" text-anchor="start" dominant-baseline="alphabetic" xml:space="preserve">Vue</text></g><g><path fill="white" stroke="black" paint-order="fill stroke markers" d=" M 736.3900809671666 82.819480731 A 24.2577769005 24.2577769005 0 1 1 736.3900688382791 82.79522295814245 M 708.8652634066666 58.561703830499994 L 718.6663853866665 50.39410218049999 M 708.8652634066666 58.561703830499994 L 718.6663853866665 66.72930548049999" stroke-miterlimit="10" stroke-width="2.7769845610000004" stroke-dasharray=""/></g><g><g/><text fill="black" stroke="none" font-family="sans-serif" font-size="11pt" font-style="normal" font-weight="normal" text-decoration="normal" x="678.1323040666666" y="124.800953212" text-anchor="start" dominant-baseline="alphabetic" xml:space="preserve">Controleur</text></g><g><path fill="white" stroke="black" paint-order="fill stroke markers" d=" M 1065.3983816153332 97.684515734 L 1065.3983816153332 63.380588804000006 L 1113.0971752513333 63.380588804000006 L 1113.0971752513333 97.684515734" stroke-miterlimit="10" stroke-width="2.7769845610000004" stroke-dasharray=""/><path fill="white" stroke="black" paint-order="fill stroke markers" d=" M 1113.0971752513333 62.1881189631 L 1113.0959827914296 62.29592950801663 L 1113.0924055309636 62.403729271968594 L 1113.086443827658 62.51150747506936 L 1113.078098277679 62.619253339588404 L 1113.0673697155737 62.72695609102909 L 1113.0542592141899 62.834604959206004 L 1113.0387680845665 62.94218917932205 L 1113.020897875804 63.04969799304486 L 1113.000650374908 63.15712064958265 L 1112.9780276066117 63.2644464067593 L 1112.9530318331733 63.371664532088516 L 1112.9256655541494 63.47876430384712 L 1112.8959315061447 63.58573501214718 L 1112.8638326625396 63.692565960007016 L 1112.8293722331914 63.79924646442086 L 1112.7925536641146 63.90576585742718 L 1112.7533806371355 64.01211348717543 L 1112.7118570695236 64.11827871899126 L 1112.6679871136016 64.22425093643996 L 1112.6217751563283 64.3300195423881 L 1112.573225818861 64.43557396006322 L 1112.522343956093 64.54090363411153 L 1112.4691346561679 64.64599803165338 L 1112.4136032399717 64.75084664333659 L 1112.3557552605998 64.85543898438739 L 1112.2955965028016 64.95976459565881 L 1112.2331329824028 65.06381304467668 L 1112.1683709457038 65.16757392668278 L 1112.1013168688537 65.27103686567541 L 1112.0319774572047 65.37419151544687 L 1111.9603596446402 65.47702756061814 L 1111.8864705928816 65.5795347176704 L 1111.8103176907723 65.68170273597339 L 1111.7319085535396 65.7835213988104 L 1111.6512510220316 65.88498052439998 L 1111.568353161934 65.98606996691414 L 1111.4832232629642 66.08677961749288 L 1111.3958698380409 66.18709940525505 L 1111.3063016224337 66.28701929830548 L 1111.2145275728894 66.38652930473813 L 1111.1205568667372 66.48561947363528 L 1111.0243989009687 66.58427989606261 L 1110.9260632913004 66.6825007060601 L 1110.8255598712117 66.7802720816286 L 1110.7228986909604 66.87758424571203 L 1110.6180900165793 66.97442746717506 L 1110.5111443288486 67.07079206177627 L 1110.4020723222477 67.1666683931365 L 1110.2908849038863 67.2620468737025 L 1110.1775931924137 67.35691796570569 L 1110.0622085169068 67.45127218211596 L 1109.9447424157368 67.54510008759026 L 1109.825206635416 67.63839229941624 L 1109.7036131294226 67.73113948845047 L 1109.5799740570062 67.82333238005134 L 1109.4543017819708 67.9149617550065 L 1109.3266088714392 68.00601845045483 L 1109.1969080945964 68.09649336080267 L 1109.0652124214114 68.18637743863435 L 1108.9315350213421 68.27566169561702 L 1108.7958892620172 68.36433720339936 L 1108.6582887078994 68.45239509450451 L 1108.5187471189295 68.53982656321674 L 1108.3772784491503 68.62662286646201 L 1108.2338968453105 68.71277532468237 L 1108.088616645451 68.79827532270376 L 1107.9414523774715 68.88311431059763 L 1107.7924187576753 68.9672838045359 L 1107.6415306893005 69.0507753876393 L 1107.4888032610281 69.13358071081912 L 1107.3342517454737 69.21569149361203 L 1107.1778915976602 69.29709952500816 L 1107.019738453472 69.37779666427225 L 1106.8598081280918 69.45777484175761 L 1106.6981166144185 69.53702605971311 L 1106.534680081469 69.61554239308303 L 1106.3695148727606 69.69331599029945 L 1106.2026375046764 69.77033907406746 L 1106.034064664814 69.84660394214286 L 1105.8638132103167 69.92210296810242 L 1105.6919001661886 69.99682860210643 L 1105.5183427235906 70.07077337165379 L 1105.3431582381222 70.14392988232913 L 1105.1663642280862 70.21629081854239 L 1104.987978372736 70.28784894426022 L 1104.8080185105089 70.35859710372968 L 1104.6265026372407 70.42852822219379 L 1104.4434489043679 70.49763530659898 L 1104.2588756171108 70.5659114462944 L 1104.0728012326447 70.63334981372294 L 1103.8852443582527 70.69994366510412 L 1103.696223749466 70.76568634110825 L 1103.5057583081882 70.83057126752253 L 1103.3138670808044 70.89459195590838 L 1103.1205692562776 70.95774200425032 L 1102.925884164229 71.02001509759614 L 1102.7298312730059 71.08140500868842 L 1102.5324301877338 71.14190559858717 L 1102.3337006483566 71.20151081728383 L 1102.1336625276629 71.26021470430622 L 1101.932335829298 71.31801138931453 L 1101.7297406857638 71.37489509268845 L 1101.5258973564062 71.43086012610503 L 1101.3208262253877 71.48590089310757 L 1101.114547799651 71.54001188966522 L 1100.9070827068667 71.59318770472345 L 1100.698451693371 71.64542302074504 L 1100.4886756220915 71.69671261424193 L 1100.2777754704605 71.7470513562975 L 1100.0657723283175 71.79643421307951 L 1099.8526873957999 71.84485624634341 L 1099.6385419812234 71.89231261392625 L 1099.4233574989512 71.93879857023082 L 1099.207155467252 71.9843094667002 L 1098.9899575061488 72.02884075228269 L 1098.7717853352567 72.07238797388683 L 1098.5526607716113 72.11494677682676 L 1098.332605727486 72.15651290525764 L 1098.1116422082018 72.19708220260128 L 1097.8897923099269 72.23665061196175 L 1097.6670782174658 72.27521417653107 L 1097.4435222020425 72.31276903998494 L 1097.2191466190718 72.3493114468683 L 1096.9939739059255 72.38483774297092 L 1096.768026579687 72.41934437569277 L 1096.541327234901 72.45282789439938 L 1096.3138985413125 72.48528495076673 L 1096.0857632416019 72.51671229911628 L 1095.8569441491084 72.54710679673934 L 1095.6274641455511 72.5764654042115 L 1095.397346178739 72.60478518569649 L 1095.166613260277 72.63206330923974 L 1094.9352884632647 72.65829704705163 L 1094.7033949199888 72.68348377578025 L 1094.4709558196107 72.70762097677371 L 1094.2379944058466 72.73070623633201 L 1094.0045339746437 72.75273724594847 L 1093.7705978718507 72.77371180254045 L 1093.5362094908828 72.79362780866978 L 1093.3013922703828 72.81248327275246 L 1093.0661696918771 72.83027630925778 L 1092.8305652774275 72.84700513889692 L 1092.5946025872793 72.86266808880085 L 1092.3583052175045 72.87726359268764 L 1092.1216967976434 72.89079019101906 L 1091.8848009883409 72.90324653114655 L 1091.6476414789804 72.91463136744649 L 1091.4102419853152 72.9249435614447 L 1091.1726262470968 72.93418208193043 L 1090.9348180257011 72.94234600505929 L 1090.6968411017522 72.94943451444577 L 1090.4587192727438 72.95544690124485 L 1090.2204763506604 72.96038256422287 L 1089.9821361595962 72.96424100981763 L 1089.743722533371 72.9670218521878 L 1089.5052593131495 72.96872481325143 L 1089.2667703450543 72.96934972271386 L 1089.0282794777838 72.96889651808466 L 1088.789810560226 72.96736524468392 L 1088.5513874390738 72.96475605563768 L 1088.3130339564407 72.96106921186271 L 1088.0747739474764 72.95630508204027 L 1087.836631237983 72.9504641425794 L 1087.5986296420333 72.94354697756918 L 1087.3607929595885 72.93555427872033 L 1087.1231449741185 72.9264868452961 L 1086.885709450224 72.91634558403224 L 1086.6485101312594 72.90513150904647 L 1086.411570736959 72.89284574173689 L 1086.1749149610646 72.87948951067006 L 1085.9385664689569 72.86506415145789 L 1085.702548895288 72.84957110662431 L 1085.4668858416183 72.8330119254609 L 1085.2316008740572 72.81538826387197 L 1084.9967175209051 72.79670188420899 L 1084.762259270302 72.77695465509434 L 1084.5282495678769 72.7561485512345 L 1084.2947118144057 72.73428565322251 L 1084.0616693634686 72.71136814732996 L 1083.829145519117 72.68739832528833 L 1083.597163533541 72.66237858405984 L 1083.3657466047464 72.63631142559778 L 1083.134917874233 72.60919945659627 L 1082.9047004246813 72.58104538822961 L 1082.6751172776449 72.55185203588118 L 1082.4461913912467 72.5216223188619 L 1082.2179456578847 72.49035926011825 L 1081.990402901942 72.45806598593009 L 1081.7635858775047 72.4247457255979 L 1081.537517266086 72.39040181111994 L 1081.312219674359 72.35503767685907 L 1081.0877156318952 72.31865685919922 L 1080.8640275889113 72.28126299619186 L 1080.6411779140253 72.24285982719209 L 1080.4191888920193 72.20345119248485 L 1080.19808272161 72.16304103290075 L 1079.9778815132308 72.12163338942209 L 1079.7586072868185 72.07923240277869 L 1079.5402819696133 72.03584231303388 L 1079.322927393965 71.99146745916049 L 1079.10656529515 71.94611227860693 L 1078.8912173091976 71.89978130685344 L 1078.6769049707273 71.85247917695861 L 1078.4636497107942 71.80421061909601 L 1078.2514728547467 71.75498046008119 L 1078.0403956200935 71.70479362288901 L 1077.8304391143822 71.65365512616141 L 1077.6216243330882 71.60157008370541 L 1077.413972157516 71.54854370398188 L 1077.2075033527096 71.49458128958457 L 1077.002238565378 71.43968823671 L 1076.7981983218285 71.38387003461766 L 1076.5954030259156 71.32713226508127 L 1076.393872957 71.26948060183051 L 1076.19362826792 71.21092080998365 L 1075.9946889829787 71.15145874547107 L 1075.797074995938 71.0911003544497 L 1075.600806068032 71.0298516727083 L 1075.4059018259902 70.96771882506403 L 1075.212381760074 70.90470802474988 L 1075.0202652221294 70.84082557279336 L 1074.8295714236497 70.77607785738643 L 1074.6403194338557 70.71047135324669 L 1074.4525281777887 70.64401262096986 L 1074.266216434418 70.5767083063738 L 1074.0814028347627 70.50856513983389 L 1073.8981058600286 70.43958993560999 L 1073.7163438397604 70.36978959116503 L 1073.5361349500088 70.29917108647531 L 1073.3574972115125 70.22774148333244 L 1073.1804484878967 70.1555079246372 L 1073.0050064838858 70.08247763368529 L 1072.8311887435343 70.00865791344492 L 1072.6590126484714 69.9340561458266 L 1072.4884954161632 69.85867979094495 L 1072.3196540981905 69.78253638637263 L 1072.1525055785446 69.70563354638664 L 1071.9870665719382 69.62797896120688 L 1071.8233536221342 69.54958039622719 L 1071.6613831002908 69.47044569123871 L 1071.5011712033254 69.39058275964601 L 1071.3427339522943 69.30999958767568 L 1071.1860871907907 69.22870423357777 L 1071.0312465833597 69.14670482681996 L 1070.8782276139334 69.06400956727457 L 1070.727045584281 68.98062672439866 L 1070.5777156124798 68.89656463640702 L 1070.4302526314023 68.8118317094384 L 1070.2846713872239 68.72643641671489 L 1070.1409864379473 68.6403872976946 L 1069.999212151948 68.55369295721772 L 1069.8593627065366 68.46636206464606 L 1069.721452086541 68.37840335299609 L 1069.5854940829079 68.28982561806569 L 1069.451502291325 68.20063771755453 L 1069.319490110859 68.11084857017835 L 1069.1894707426188 68.02046715477704 L 1069.0614571884323 67.92950250941684 L 1068.9354622495484 67.83796373048648 L 1068.811498525356 67.74585997178757 L 1068.6895784121243 67.65320044361923 L 1068.5697141017629 67.55999441185705 L 1068.4519175806029 67.46625119702654 L 1068.3362006281984 67.37198017337107 L 1068.2225748161484 67.27719076791445 L 1068.1110515069388 67.18189245951821 L 1068.0016418528082 67.08609477793381 L 1067.8943567946305 66.98980730284956 L 1067.7892070608223 66.89303966293272 L 1067.6862031662693 66.79580153486665 L 1067.585355411275 66.69810264238313 L 1067.4866738805308 66.59995275528999 L 1067.390168442108 66.50136168849414 L 1067.2958487464693 66.40233930102012 L 1067.2037242255064 66.30289549502413 L 1067.1138040915944 66.20304021480393 L 1067.0260973366712 66.1027834458043 L 1066.94061273134 66.00213521361863 L 1066.8573588239897 65.90110558298623 L 1066.7763439399419 65.799704656786 L 1066.697576180617 65.69794257502603 L 1066.6210634227257 65.59582951382973 L 1066.54681331748 65.4933756844181 L 1066.4748332898282 65.3905913320887 L 1066.4051305377136 65.28748673519112 L 1066.337712031353 65.18407220409914 L 1066.272584512541 65.08035808017966 L 1066.2097544939752 64.97635473475869 L 1066.149228258605 64.87207256808405 L 1066.0910118590036 64.76752200828555 L 1066.0351111167622 64.66271351033203 L 1065.9815316219087 64.55765755498592 L 1065.9302787323481 64.45236464775525 L 1065.881357573326 64.34684531784296 L 1065.8347730369185 64.24111011709415 L 1065.7905297815394 64.13516961894075 L 1065.748632231478 64.0290344173443 L 1065.7090845764542 63.92271512573653 L 1065.6718907712007 63.81622237595798 L 1065.6370545350667 63.70956681719489 L 1065.604579351647 63.602759114914264 L 1065.574468468433 63.49580994979732 L 1065.5467248964878 63.38873001667144 L 1065.5213514101454 63.28153002344071 L 1065.4983505467335 63.17422069001512 L 1065.477724606319 63.066812747238586 L 1065.459475651479 62.959316935815885 L 1065.4436055070935 62.85174400523857 L 1065.430115760164 62.74410471271006 L 1065.4190077596538 62.636409822069915 L 1065.4102826163537 62.52867010271744 L 1065.4039412027707 62.4208963285348 L 1065.399984153041 62.313099276809595 L 1065.3984118628664 62.20528972715717 L 1065.3992244894744 62.09747846044265 L 1065.402421951603 61.98967625770286 L 1065.4080039295086 61.88189389906824 L 1065.4159698649983 61.77414216268484 L 1065.426318961485 61.66643182363649 L 1065.4390501840678 61.558773652867366 L 1065.454162259635 61.4511784161048 L 1065.4716536769915 61.34365687278283 L 1065.4915226870103 61.236219774966166 L 1065.513767302807 61.12887786627507 L 1065.5383852999385 61.02164188081096 L 1065.5653742166255 60.91452254208302 L 1065.594731353999 60.807530561935856 L 1065.6264537763693 60.70067663947832 L 1065.6605383115211 60.593971460013606 L 1065.6969815510292 60.487425693970756 L 1065.7357798506 60.381049995837586 L 1065.7769293304357 60.27485500309525 L 1065.8204258756227 60.16885133515453 L 1065.8662651365428 60.06304959229389 L 1065.914442529308 59.95746035459945 L 1065.9649532362191 59.852094180906974 L 1066.0177922062478 59.746961607746044 L 1066.0729541555409 59.64207314828636 L 1066.1304335679495 59.537439291286454 L 1066.1902246955804 59.43307050004484 L 1066.2523215593703 59.32897721135367 L 1066.3167179496847 59.22516983445505 L 1066.3834074269384 59.12165875000019 L 1066.4523833222393 59.01845430901127 L 1066.523638738055 58.91556683184637 L 1066.5971665489037 58.81300660716748 L 1066.6729594020653 58.7107838909116 L 1066.7510097183178 58.60890890526517 L 1066.8313096926945 58.507391837641855 L 1066.913851295265 58.406242839663825 L 1066.9986262719378 58.30547202614659 L 1067.0856261452857 58.205089474087515 L 1067.1748422153942 58.105105221658164 L 1067.26626556073 58.00552926720046 L 1067.3598870390356 57.90637156822687 L 1067.4556972882408 57.807642040424646 L 1067.5536867274004 57.709350556664305 L 1067.6538455576522 57.61150694601232 L 1067.7561637631966 57.514120992748204 L 1067.8606311122985 57.417202435386145 L 1067.96723715831 57.320760965701105 L 1068.0759712407153 57.224806227759686 L 1068.1868224861967 57.12934781695572 L 1068.299779809722 57.03439527905074 L 1068.414831915653 56.93995810921942 L 1068.531967298875 56.84604575110002 L 1068.6511742459477 56.75266759585011 L 1068.772440836275 56.65983298120741 L 1068.8957549432994 56.567551190555996 L 1069.021104235713 56.47583145199805 L 1069.1484761786905 56.384682937430995 L 1069.2778580351444 56.29411476163032 L 1069.4092368669965 56.20413598133814 L 1069.542599536473 56.1147555943575 L 1069.6779327074184 56.02598253865261 L 1069.8152228466283 55.937825691455075 L 1069.954456225203 55.85029386837614 L 1070.095618919921 55.763395822525176 L 1070.2386968146302 55.677140243634355 L 1070.3836756016603 55.591535757189675 L 1070.5305407832536 55.50659092356846 L 1070.6792776730142 55.42231423718327 L 1070.8298713973772 55.33871412563253 L 1070.9823068970954 55.25579894885771 L 1071.1365689287463 55.1735769983074 L 1071.292642066255 55.092056496108135 L 1071.450510702438 55.01124559424221 L 1071.6101590505627 54.93115237373246 L 1071.771571145928 54.851784843834196 L 1071.9347308474582 54.77315094123426 L 1072.09962183932 54.6952585292574 L 1072.266227632551 54.61811539707989 L 1072.4345315667106 54.54172925895067 L 1072.6045168115459 54.46610775341989 L 1072.7761663686742 54.391258442575094 L 1072.9494630732825 54.317188811284986 L 1073.124389595845 54.24390626645098 L 1073.3009284438551 54.171418136266475 L 1073.4790619635753 54.09973166948409 L 1073.6587723418018 54.028854034690774 L 1073.8400416076468 53.95879231959093 L 1074.0228516343345 53.88955353029769 L 1074.2071841410147 53.82114459063227 L 1074.3930206945904 53.753572341431656 L 1074.580342711561 53.68684353986444 L 1074.769131459881 53.62096485875517 L 1074.9593680608327 53.55594288591707 L 1075.1510334909149 53.49178412349323 L 1075.344108583744 53.42849498730643 L 1075.5385740319716 53.366081806217544 L 1075.734410389215 53.304550821492676 L 1075.931598072002 53.24390818617902 L 1076.1301173617283 53.18415996448957 L 1076.3299484066301 53.12531213119671 L 1076.5310712237701 53.067370571034715 L 1076.7334657010338 53.01034107811134 L 1076.9371115991419 52.95422935532834 L 1077.1419885536748 52.89904101381123 L 1077.3480760771074 52.84478157234818 L 1077.5553535608594 52.79145645683812 L 1077.763800277355 52.73907099974815 L 1077.973395382096 52.687630439580346 L 1078.184117915747 52.637139920347835 L 1078.39594680623 52.58760449106049 L 1078.6088608708326 52.53902910521993 L 1078.8228388183256 52.49141862032429 L 1079.0378592510929 52.444777797382365 L 1079.25390066727 52.399111300437596 L 1079.4709414628958 52.354423696101605 L 1079.688959934071 52.3107194530976 L 1079.9079342791306 52.26800294181345 L 1080.1278426008223 52.2262784338647 L 1080.3486629084975 52.18555010166736 L 1080.5703731203091 52.14582201802072 L 1080.792951065421 52.10709815570004 L 1081.016374486224 52.06938238705927 L 1081.2406210405622 52.032678483643856 L 1081.4656683039673 51.996990115813546 L 1081.6914937719 51.96232085237539 L 1081.918074862002 51.928674160226834 L 1082.145388916353 51.89605340400906 L 1082.3734132037373 51.8644618457705 L 1082.6021249219157 51.833902644640645 L 1082.8315011999073 51.80437885651416 L 1083.0615191002753 51.775893433745246 L 1083.2921556214214 51.74844922485244 L 1083.523387699886 51.722048974233765 L 1083.7551922126534 51.69669532189228 L 1083.9875459794657 51.672390803172085 L 1084.22042576514 51.649137848504814 L 1084.4538082818915 51.626938783166544 L 1084.687670191663 51.60579582704531 L 1084.921988108459 51.58571109441911 L 1085.1567386006825 51.56668659374447 L 1085.39189819348 51.54872422745561 L 1085.6274433710885 51.53182579177417 L 1085.863350579186 51.515992976529645 L 1086.0995962272489 51.50122736499037 L 1086.3361566909086 51.4875304337052 L 1086.5730083143164 51.47490355235584 L 1086.810127412507 51.4633479836199 L 1087.0474902737685 51.45286488304463 L 1087.2850731620122 51.443455298931354 L 1087.5228523191477 51.43512017223063 L 1087.760803967457 51.4278603364482 L 1087.9989043119738 51.42167651756158 L 1088.2371295428618 51.41656933394751 L 1088.4754558377967 51.41253929632009 L 1088.7138593643479 51.40958680767973 L 1088.9523162823607 51.407712163272826 L 1089.1908027463426 51.40691555056227 L 1089.4292949078456 51.40719704920866 L 1089.6677689178525 51.40855663106237 L 1089.9062009291608 51.41099416016634 L 1090.1445670987682 51.414509392769695 L 1090.3828435902567 51.419101977352106 L 1090.621006576175 51.42477145465894 L 1090.8590322404236 51.431517257747196 L 1091.096896780634 51.43933871204218 L 1091.3345764105509 51.44823503540498 L 1091.5720473624087 51.45820533821068 L 1091.8092858893108 51.4692486234373 L 1092.0462682676018 51.48136378676553 L 1092.2829707992414 51.49454961668913 L 1092.5193698141736 51.50880479463608 L 1092.7554416726941 51.524127895100484 L 1092.9911627678139 51.54051738578506 L 1093.2265095276196 51.5579716277544 L 1093.4614584176313 51.57648887559884 L 1093.6959859431563 51.59606727760904 L 1093.930068651637 51.6167048759611 L 1094.1636831349977 51.6383996069124 L 1094.3968060319849 51.66114930100791 L 1094.6294140305029 51.684951683297186 L 1094.861483869946 51.70980437356183 L 1095.0929923435235 51.735704886553535 L 1095.3239163005808 51.76265063224257 L 1095.554232648915 51.79063891607683 L 1095.783918357083 51.81966693925126 L 1096.0129504567053 51.849731798987726 L 1096.241306044763 51.88083048882531 L 1096.4689622858875 51.91295989892094 L 1096.6958964146443 51.94611681636038 L 1096.9220857378098 51.980297925479526 L 1097.1475076366398 52.01549980819594 L 1097.372139569133 52.0517189443507 L 1097.5959590722825 52.08895171206036 L 1097.818943764325 52.127194388079175 L 1098.041071346977 52.16644314817141 L 1098.2623196076656 52.20669406749378 L 1098.4826664217487 52.247943120987884 L 1098.7020897547286 52.29018618378274 L 1098.9205676644551 52.33341903160728 L 1099.138078303319 52.37763734121275 L 1099.3545999204377 52.422836690805035 L 1099.5701108638302 52.46901256048684 L 1099.7845895825815 52.516160332709674 L 1099.9980146289984 52.564275292735616 L 1100.2103646607543 52.613352629108746 L 1100.421618443023 52.663387434136325 L 1100.6317548506022 52.71437470437956 L 1100.8407528700263 52.7663093411539 L 1101.0485916016673 52.819186151038956 L 1101.2552502618257 52.8729998463978 L 1101.4607081848073 52.92774504590574 L 1101.6649448249914 52.983416275088445 L 1101.8679397588837 53.040007966869396 L 1102.0696726871604 53.09751446212657 L 1102.2701234366964 53.15593001025836 L 1102.4692719625841 53.21524876975863 L 1102.6670983501367 53.27546480880087 L 1102.8635828168804 53.33657210583136 L 1103.058705714532 53.3985645501713 L 1103.2524475309647 53.461435942627936 L 1103.4447888921582 53.52517999611441 L 1103.6357105641366 53.58979033627848 L 1103.8251934548919 53.655260502139996 L 1104.0132186162928 53.721583946736914 L 1104.1997672459797 53.78875403778004 L 1104.3848206892455 53.85676405831625 L 1104.5683604408998 53.92560720740017 L 1104.7503681471205 53.995276600774254 L 1104.9308256072884 54.065765271557225 L 1105.1097147758082 54.13706617094075 L 1105.2870177639122 54.2091721688943 L 1105.4627168414488 54.28207605487816 L 1105.6367944386573 54.35577053856451 L 1105.8092331479224 54.43024825056637 L 1105.9800157255174 54.50550174317461 L 1106.1491250933268 54.581523491102686 L 1106.3165443405544 54.658305892239156 L 1106.4822567254153 54.73584126840789 L 1106.646245676809 54.81412186613588 L 1106.808494795977 54.89313985742859 L 1106.9689878581426 54.97288734055273 L 1107.1277088141333 55.05335634082646 L 1107.284641791986 55.1345388114168 L 1107.4397710985334 55.21642663414435 L 1107.593081220974 55.29901162029506 L 1107.7445568284238 55.38228551143916 L 1107.894182773448 55.46623998025691 L 1108.0419440935768 55.55086663137139 L 1108.1878260128012 55.63615700218803 L 1108.3318139430512 55.722102563740805 L 1108.4738934856532 55.80869472154519 L 1108.614050432772 55.89592481645755 L 1108.7522707688292 55.98378412554111 L 1108.8885406719066 56.07226386293816 L 1109.0228465151274 56.1613551807487 L 1109.1551748680192 56.251049169915184 L 1109.2855124978569 56.34133686111345 L 1109.4138463709862 56.4322092256496 L 1109.540163654127 56.52365717636293 L 1109.6644517156556 56.615671568534566 L 1109.78669812687 56.70824320080196 L 1109.9068906632308 56.80136281607904 L 1110.0250173055842 56.89502110248188 L 1110.141066241365 56.98920869425987 L 1110.255025865776 57.083916172732344 L 1110.3668847829495 57.17913406723036 L 1110.4766318070874 57.27485285604382 L 1110.5842559635785 57.37106296737362 L 1110.689746490097 57.467754780288786 L 1110.7930928376782 57.56491862568861 L 1110.894284671773 57.662544787269525 L 1110.993311873283 57.76062350249672 L 1111.09016453957 57.859144963580405 L 1111.1848329854483 57.95809931845658 L 1111.2773077441523 58.05747667177222 L 1111.367579568283 58.15726708587479 L 1111.4556394307333 58.257460581806065 L 1111.5414785255905 58.358047140299924 L 1111.6250882690163 58.459016702784346 L 1111.7064603001063 58.56035917238722 L 1111.7855864817252 58.66206441494605 L 1111.8624589013207 58.764122260021324 L 1111.9370698717148 58.866522501913586 L 1112.0094119318728 58.96925490068398 L 1112.079477847649 59.072309183178234 L 1112.14726061251 59.17567504405398 L 1112.212753448236 59.279342146811274 L 1112.275949805598 59.38330012482622 L 1112.3368433650126 59.48753858238766 L 1112.395428037175 59.59204709573668 L 1112.4516979636667 59.69681521410906 L 1112.505647517542 59.80183246078026 L 1112.55727130389 59.907088334113126 L 1112.606564160376 60.012572308608036 L 1112.6535211577543 60.11827383595545 L 1112.6981376003653 60.22418234609071 L 1112.7404090266014 60.33028724825106 L 1112.7803312093552 60.43657793203471 L 1112.8179001564417 60.54304376846186 L 1112.853112110998 60.64967411103757 L 1112.8859635518572 60.75645829681646 L 1112.916451193903 60.86338564746893 L 1112.9445719883968 60.97044547034902 L 1112.9703231232822 61.07762705956367 L 1112.9937020234672 61.184919697043256 L 1113.0147063510817 61.29231265361346 L 1113.0333340057098 61.399795190068104 L 1113.0495831246021 61.50735655824312 L 1113.06345208286 61.614986002091314 L 1113.0749394935992 61.72267275875801 L 1113.0840442080885 61.830406059657264 L 1113.0907653158636 61.93817513154877 L 1113.0951021448197 62.04596919761514 L 1113.0970542612772 62.15377747853961 M 1113.0971752513333 96.4920458931 L 1113.0959827914296 96.59985643801662 L 1113.0924055309636 96.70765620196859 L 1113.086443827658 96.81543440506935 L 1113.078098277679 96.9231802695884 L 1113.0673697155737 97.03088302102908 L 1113.0542592141899 97.138531889206 L 1113.0387680845665 97.24611610932205 L 1113.020897875804 97.35362492304485 L 1113.000650374908 97.46104757958265 L 1112.9780276066117 97.5683733367593 L 1112.9530318331733 97.67559146208852 L 1112.9256655541494 97.78269123384712 L 1112.8959315061447 97.88966194214719 L 1112.8638326625396 97.99649289000702 L 1112.8293722331914 98.10317339442086 L 1112.7925536641146 98.20969278742717 L 1112.7533806371355 98.31604041717543 L 1112.7118570695236 98.42220564899125 L 1112.6679871136016 98.52817786643996 L 1112.6217751563283 98.6339464723881 L 1112.573225818861 98.73950089006323 L 1112.522343956093 98.84483056411152 L 1112.4691346561679 98.94992496165337 L 1112.4136032399717 99.05477357333659 L 1112.3557552605998 99.15936591438738 L 1112.2955965028016 99.2636915256588 L 1112.2331329824028 99.36773997467667 L 1112.1683709457038 99.47150085668278 L 1112.1013168688537 99.5749637956754 L 1112.0319774572047 99.67811844544686 L 1111.9603596446402 99.78095449061813 L 1111.8864705928816 99.8834616476704 L 1111.8103176907723 99.98562966597338 L 1111.7319085535396 100.08744832881038 L 1111.6512510220316 100.18890745439998 L 1111.568353161934 100.28999689691415 L 1111.4832232629642 100.39070654749288 L 1111.3958698380409 100.49102633525506 L 1111.3063016224337 100.59094622830548 L 1111.2145275728894 100.69045623473812 L 1111.1205568667372 100.78954640363527 L 1111.0243989009687 100.8882068260626 L 1110.9260632913004 100.9864276360601 L 1110.8255598712117 101.0841990116286 L 1110.7228986909604 101.18151117571202 L 1110.6180900165793 101.27835439717506 L 1110.5111443288486 101.37471899177628 L 1110.4020723222477 101.4705953231365 L 1110.2908849038863 101.56597380370249 L 1110.1775931924137 101.6608448957057 L 1110.0622085169068 101.75519911211595 L 1109.9447424157368 101.84902701759025 L 1109.825206635416 101.94231922941623 L 1109.7036131294226 102.03506641845047 L 1109.5799740570062 102.12725931005133 L 1109.4543017819708 102.2188886850065 L 1109.3266088714392 102.30994538045483 L 1109.1969080945964 102.40042029080266 L 1109.0652124214114 102.49030436863434 L 1108.9315350213421 102.579588625617 L 1108.7958892620172 102.66826413339936 L 1108.6582887078994 102.75632202450451 L 1108.5187471189295 102.84375349321674 L 1108.3772784491503 102.93054979646202 L 1108.2338968453105 103.01670225468237 L 1108.088616645451 103.10220225270375 L 1107.9414523774715 103.18704124059762 L 1107.7924187576753 103.27121073453588 L 1107.6415306893005 103.3547023176393 L 1107.4888032610281 103.4375076408191 L 1107.3342517454737 103.51961842361202 L 1107.1778915976602 103.60102645500817 L 1107.019738453472 103.68172359427226 L 1106.8598081280918 103.7617017717576 L 1106.6981166144185 103.84095298971312 L 1106.534680081469 103.91946932308304 L 1106.3695148727606 103.99724292029944 L 1106.2026375046764 104.07426600406745 L 1106.034064664814 104.15053087214287 L 1105.8638132103167 104.22602989810241 L 1105.6919001661886 104.30075553210642 L 1105.5183427235906 104.37470030165377 L 1105.3431582381222 104.44785681232914 L 1105.1663642280862 104.52021774854238 L 1104.987978372736 104.59177587426021 L 1104.8080185105089 104.66252403372968 L 1104.6265026372407 104.73245515219378 L 1104.4434489043679 104.80156223659897 L 1104.2588756171108 104.86983837629438 L 1104.0728012326447 104.93727674372295 L 1103.8852443582527 105.0038705951041 L 1103.696223749466 105.06961327110824 L 1103.5057583081882 105.13449819752252 L 1103.3138670808044 105.19851888590837 L 1103.1205692562776 105.26166893425032 L 1102.925884164229 105.32394202759615 L 1102.7298312730059 105.38533193868841 L 1102.5324301877338 105.44583252858716 L 1102.3337006483566 105.50543774728384 L 1102.1336625276629 105.56414163430621 L 1101.932335829298 105.62193831931454 L 1101.7297406857638 105.67882202268845 L 1101.5258973564062 105.73478705610502 L 1101.3208262253877 105.78982782310756 L 1101.114547799651 105.84393881966523 L 1100.9070827068667 105.89711463472344 L 1100.698451693371 105.94934995074503 L 1100.4886756220915 106.00063954424192 L 1100.2777754704605 106.0509782862975 L 1100.0657723283175 106.1003611430795 L 1099.8526873957999 106.14878317634341 L 1099.6385419812234 106.19623954392625 L 1099.4233574989512 106.2427255002308 L 1099.207155467252 106.2882363967002 L 1098.9899575061488 106.33276768228268 L 1098.7717853352567 106.37631490388682 L 1098.5526607716113 106.41887370682676 L 1098.332605727486 106.46043983525765 L 1098.1116422082018 106.50100913260128 L 1097.8897923099269 106.54057754196174 L 1097.6670782174658 106.57914110653107 L 1097.4435222020425 106.61669596998493 L 1097.2191466190718 106.65323837686829 L 1096.9939739059255 106.6887646729709 L 1096.768026579687 106.72327130569276 L 1096.541327234901 106.75675482439937 L 1096.3138985413125 106.78921188076673 L 1096.0857632416019 106.82063922911627 L 1095.8569441491084 106.85103372673933 L 1095.6274641455511 106.8803923342115 L 1095.397346178739 106.90871211569649 L 1095.166613260277 106.93599023923973 L 1094.9352884632647 106.96222397705162 L 1094.7033949199888 106.98741070578025 L 1094.4709558196107 107.0115479067737 L 1094.2379944058466 107.03463316633201 L 1094.0045339746437 107.05666417594847 L 1093.7705978718507 107.07763873254045 L 1093.5362094908828 107.09755473866979 L 1093.3013922703828 107.11641020275246 L 1093.0661696918771 107.13420323925777 L 1092.8305652774275 107.1509320688969 L 1092.5946025872793 107.16659501880085 L 1092.3583052175045 107.18119052268763 L 1092.1216967976434 107.19471712101905 L 1091.8848009883409 107.20717346114655 L 1091.6476414789804 107.21855829744648 L 1091.4102419853152 107.22887049144471 L 1091.1726262470968 107.23810901193042 L 1090.9348180257011 107.24627293505928 L 1090.6968411017522 107.25336144444577 L 1090.4587192727438 107.25937383124486 L 1090.2204763506604 107.26430949422287 L 1089.9821361595962 107.26816793981763 L 1089.743722533371 107.27094878218779 L 1089.5052593131495 107.27265174325143 L 1089.2667703450543 107.27327665271386 L 1089.0282794777838 107.27282344808465 L 1088.789810560226 107.27129217468391 L 1088.5513874390738 107.26868298563768 L 1088.3130339564407 107.2649961418627 L 1088.0747739474764 107.26023201204026 L 1087.836631237983 107.2543910725794 L 1087.5986296420333 107.24747390756917 L 1087.3607929595885 107.23948120872033 L 1087.1231449741185 107.23041377529609 L 1086.885709450224 107.22027251403225 L 1086.6485101312594 107.20905843904646 L 1086.411570736959 107.1967726717369 L 1086.1749149610646 107.18341644067004 L 1085.9385664689569 107.16899108145788 L 1085.702548895288 107.15349803662431 L 1085.4668858416183 107.1369388554609 L 1085.2316008740572 107.11931519387196 L 1084.9967175209051 107.10062881420897 L 1084.762259270302 107.08088158509435 L 1084.5282495678769 107.0600754812345 L 1084.2947118144057 107.03821258322252 L 1084.0616693634686 107.01529507732995 L 1083.829145519117 106.99132525528832 L 1083.597163533541 106.96630551405984 L 1083.3657466047464 106.94023835559778 L 1083.134917874233 106.91312638659626 L 1082.9047004246813 106.88497231822961 L 1082.6751172776449 106.85577896588119 L 1082.4461913912467 106.8255492488619 L 1082.2179456578847 106.79428619011826 L 1081.990402901942 106.76199291593008 L 1081.7635858775047 106.72867265559789 L 1081.537517266086 106.69432874111995 L 1081.312219674359 106.65896460685907 L 1081.0877156318952 106.62258378919921 L 1080.8640275889113 106.58518992619184 L 1080.6411779140253 106.5467867571921 L 1080.4191888920193 106.50737812248485 L 1080.19808272161 106.46696796290075 L 1079.9778815132308 106.42556031942208 L 1079.7586072868185 106.38315933277867 L 1079.5402819696133 106.33976924303387 L 1079.322927393965 106.29539438916049 L 1079.10656529515 106.25003920860692 L 1078.8912173091976 106.20370823685344 L 1078.6769049707273 106.15640610695861 L 1078.4636497107942 106.108137549096 L 1078.2514728547467 106.05890739008117 L 1078.0403956200935 106.00872055288902 L 1077.8304391143822 105.9575820561614 L 1077.6216243330882 105.90549701370541 L 1077.413972157516 105.85247063398188 L 1077.2075033527096 105.79850821958458 L 1077.002238565378 105.74361516670999 L 1076.7981983218285 105.68779696461766 L 1076.5954030259156 105.63105919508126 L 1076.393872957 105.57340753183051 L 1076.19362826792 105.51484773998365 L 1075.9946889829787 105.45538567547108 L 1075.797074995938 105.3950272844497 L 1075.600806068032 105.33377860270829 L 1075.4059018259902 105.27164575506403 L 1075.212381760074 105.20863495474987 L 1075.0202652221294 105.14475250279335 L 1074.8295714236497 105.08000478738643 L 1074.6403194338557 105.01439828324668 L 1074.4525281777887 104.94793955096986 L 1074.266216434418 104.8806352363738 L 1074.0814028347627 104.8124920698339 L 1073.8981058600286 104.74351686560999 L 1073.7163438397604 104.67371652116503 L 1073.5361349500088 104.6030980164753 L 1073.3574972115125 104.53166841333243 L 1073.1804484878967 104.4594348546372 L 1073.0050064838858 104.38640456368528 L 1072.8311887435343 104.31258484344491 L 1072.6590126484714 104.2379830758266 L 1072.4884954161632 104.16260672094495 L 1072.3196540981905 104.08646331637262 L 1072.1525055785446 104.00956047638662 L 1071.9870665719382 103.93190589120688 L 1071.8233536221342 103.85350732622719 L 1071.6613831002908 103.77437262123871 L 1071.5011712033254 103.694509689646 L 1071.3427339522943 103.61392651767568 L 1071.1860871907907 103.53263116357778 L 1071.0312465833597 103.45063175681996 L 1070.8782276139334 103.36793649727457 L 1070.727045584281 103.28455365439865 L 1070.5777156124798 103.20049156640701 L 1070.4302526314023 103.1157586394384 L 1070.2846713872239 103.03036334671489 L 1070.1409864379473 102.94431422769459 L 1069.999212151948 102.85761988721772 L 1069.8593627065366 102.77028899464605 L 1069.721452086541 102.68233028299609 L 1069.5854940829079 102.59375254806568 L 1069.451502291325 102.50456464755453 L 1069.319490110859 102.41477550017834 L 1069.1894707426188 102.32439408477703 L 1069.0614571884323 102.23342943941684 L 1068.9354622495484 102.14189066048647 L 1068.811498525356 102.04978690178756 L 1068.6895784121243 101.95712737361922 L 1068.5697141017629 101.86392134185704 L 1068.4519175806029 101.77017812702654 L 1068.3362006281984 101.67590710337106 L 1068.2225748161484 101.58111769791444 L 1068.1110515069388 101.48581938951821 L 1068.0016418528082 101.39002170793381 L 1067.8943567946305 101.29373423284954 L 1067.7892070608223 101.19696659293271 L 1067.6862031662693 101.09972846486664 L 1067.585355411275 101.00202957238312 L 1067.4866738805308 100.90387968528998 L 1067.390168442108 100.80528861849413 L 1067.2958487464693 100.70626623102011 L 1067.2037242255064 100.60682242502413 L 1067.1138040915944 100.50696714480392 L 1067.0260973366712 100.40671037580431 L 1066.94061273134 100.30606214361863 L 1066.8573588239897 100.20503251298624 L 1066.7763439399419 100.103631586786 L 1066.697576180617 100.00186950502604 L 1066.6210634227257 99.89975644382972 L 1066.54681331748 99.79730261441809 L 1066.4748332898282 99.69451826208869 L 1066.4051305377136 99.59141366519111 L 1066.337712031353 99.48799913409913 L 1066.272584512541 99.38428501017967 L 1066.2097544939752 99.28028166475868 L 1066.149228258605 99.17599949808405 L 1066.0910118590036 99.07144893828554 L 1066.0351111167622 98.96664044033201 L 1065.9815316219087 98.86158448498593 L 1065.9302787323481 98.75629157775525 L 1065.881357573326 98.65077224784297 L 1065.8347730369185 98.54503704709414 L 1065.7905297815394 98.43909654894075 L 1065.748632231478 98.33296134734431 L 1065.7090845764542 98.22664205573652 L 1065.6718907712007 98.12014930595798 L 1065.6370545350667 98.01349374719489 L 1065.604579351647 97.90668604491427 L 1065.574468468433 97.79973687979731 L 1065.5467248964878 97.69265694667143 L 1065.5213514101454 97.58545695344071 L 1065.4983505467335 97.47814762001512 L 1065.477724606319 97.37073967723859 L 1065.459475651479 97.26324386581588 L 1065.4436055070935 97.15567093523856 L 1065.430115760164 97.04803164271006 L 1065.4190077596538 96.94033675206991 L 1065.4102826163537 96.83259703271744 L 1065.4039412027707 96.7248232585348 L 1065.399984153041 96.6170262068096 L 1065.3984118628664 96.50921665715717" stroke-miterlimit="10" stroke-width="2.7769845610000004" stroke-dasharray=""/></g><g><g/><text fill="black" stroke="none" font-family="sans-serif" font-size="11pt" font-style="normal" font-weight="normal" text-decoration="normal" x="1063.7477784333332" y="124.800953212" text-anchor="start" dominant-baseline="alphabetic" xml:space="preserve">Serveur</text></g><path fill="none" stroke="none"/><g><path fill="white" stroke="black" paint-order="fill stroke markers" d=" M 1314.8043539195 85.596465292 L 1438.2517450805 85.596465292 L 1438.2517450805 129.701514202 L 1314.8043539195 129.701514202 L 1314.8043539195 85.596465292 Z" stroke-miterlimit="10" stroke-width="2.613632528" stroke-dasharray=""/></g><g><g/><text fill="black" stroke="none" font-family="sans-serif" font-size="11pt" font-style="normal" font-weight="normal" text-decoration="normal" x="1332.5280495" y="113.36631090200001" text-anchor="start" dominant-baseline="alphabetic" xml:space="preserve">Modele/Partie</text></g><path fill="none" stroke="none"/><g><path fill="white" stroke="black" paint-order="fill stroke markers" d=" M 1526.3648960528333 85.596465292 L 1605.8122872138333 85.596465292 L 1605.8122872138333 129.701514202 L 1526.3648960528333 129.701514202 L 1526.3648960528333 85.596465292 Z" stroke-miterlimit="10" stroke-width="2.613632528" stroke-dasharray=""/></g><g><g/><text fill="black" stroke="none" font-family="sans-serif" font-size="11pt" font-style="normal" font-weight="normal" text-decoration="normal" x="1544.0885916333332" y="113.36631090200001" text-anchor="start" dominant-baseline="alphabetic" xml:space="preserve">Joueur</text></g><path fill="none" stroke="none"/><g><path fill="white" stroke="black" paint-order="fill stroke markers" d=" M 1718.4254381861665 85.596465292 L 1792.8728293471665 85.596465292 L 1792.8728293471665 129.701514202 L 1718.4254381861665 129.701514202 L 1718.4254381861665 85.596465292 Z" stroke-miterlimit="10" stroke-width="2.613632528" stroke-dasharray=""/></g><g><g/><text fill="black" stroke="none" font-family="sans-serif" font-size="11pt" font-style="normal" font-weight="normal" text-decoration="normal" x="1736.1491337666664" y="113.36631090200001" text-anchor="start" dominant-baseline="alphabetic" xml:space="preserve">Perso</text></g></g><g><path fill="white" stroke="black" paint-order="fill stroke markers" d=" M 395.06895698333335 183.607685092 L 411.40416028333334 183.607685092 L 411.40416028333334 863.152142372 L 395.06895698333335 863.152142372 L 395.06895698333335 183.607685092" stroke-miterlimit="10" stroke-width="1.3612669416666667" stroke-dasharray=""/><path fill="white" stroke="black" paint-order="fill stroke markers" d=" M 703.9647024166666 183.607685092 L 720.2999057166667 183.607685092 L 720.2999057166667 1503.4921117319996 L 703.9647024166666 1503.4921117319996 L 703.9647024166666 183.607685092" stroke-miterlimit="10" stroke-width="1.3612669416666667" stroke-dasharray=""/><g><g><rect fill="white" stroke="none" x="169.8384054216667" y="162.371920802" width="128.90056099" height="21.23576429"/></g><text fill="black" stroke="none" font-family="sans-serif" font-size="11pt" font-style="normal" font-weight="normal" text-decoration="normal" x="172.28868591666668" y="177.07360377199998" text-anchor="start" dominant-baseline="alphabetic" xml:space="preserve">clique sur un perso</text></g><g><path fill="none" stroke="black" paint-order="fill stroke markers" d=" M 73.50841485 183.607685092 L 381.6196395996667 183.607685092" stroke-miterlimit="10" stroke-width="1.3612669416666667" stroke-dasharray=""/><g transform="translate(395.06895698333335,183.607685092) translate(-395.06895698333335,-183.607685092)"><path fill="black" stroke="none" paint-order="stroke fill markers" d=" M 381.4562875666667 176.80135038366666 L 395.06895698333335 183.607685092 L 381.4562875666667 190.41401980033334 Z"/></g></g><g><g><rect fill="white" stroke="none" x="430.734150855" y="208.11049004199998" width="158.90056099" height="21.23576429"/></g><text fill="black" stroke="none" font-family="sans-serif" font-size="11pt" font-style="normal" font-weight="normal" text-decoration="normal" x="433.18443135" y="222.81217301199996" text-anchor="start" dominant-baseline="alphabetic" xml:space="preserve">ajoute perso a selection</text></g><g><path fill="none" stroke="black" paint-order="fill stroke markers" d=" M 411.40416028333334 229.346254332 L 476.74497348333335 229.346254332 L 476.74497348333335 250.582018622 L 424.853477667 250.582018622" stroke-miterlimit="10" stroke-width="1.3612669416666667" stroke-dasharray=""/><g transform="translate(411.40416028333334,250.582018622) translate(-411.40416028333334,-250.582018622)"><path fill="black" stroke="none" paint-order="stroke fill markers" d=" M 425.0168297 243.77568391366665 L 411.40416028333334 250.582018622 L 425.0168297 257.3883533303333 Z"/></g></g><g><g><rect fill="white" stroke="none" x="92.83840542166668" y="275.08482357199995" width="282.90056099" height="21.23576429"/></g><text fill="black" stroke="none" font-family="sans-serif" font-size="11pt" font-style="normal" font-weight="normal" text-decoration="normal" x="95.28868591666668" y="289.7865065419999" text-anchor="start" dominant-baseline="alphabetic" xml:space="preserve">affiche choix batiment(commandes_perso)</text></g><g><path fill="none" stroke="black" paint-order="fill stroke markers" d=" M 395.06895698333335 296.32058786199997 L 86.95773223366666 296.32058786199997" stroke-miterlimit="10" stroke-width="1.3612669416666667" stroke-dasharray=""/><g transform="translate(73.50841485,296.32058786199997) translate(-73.50841485,-296.32058786199997)"><path fill="black" stroke="none" paint-order="stroke fill markers" d=" M 87.12108426666666 289.51425315366663 L 73.50841485 296.32058786199997 L 87.12108426666666 303.1269225703333 Z"/></g></g><g><g><rect fill="white" stroke="none" x="125.33840542166668" y="320.82339281199995" width="217.90056099" height="21.23576429"/></g><text fill="black" stroke="none" font-family="sans-serif" font-size="11pt" font-style="normal" font-weight="normal" text-decoration="normal" x="127.78868591666668" y="335.52507578199993" text-anchor="start" dominant-baseline="alphabetic" xml:space="preserve">clique sur choix batiment(widget)</text></g><g><path fill="none" stroke="black" paint-order="fill stroke markers" d=" M 73.50841485 342.059157102 L 381.6196395996667 342.059157102" stroke-miterlimit="10" stroke-width="1.3612669416666667" stroke-dasharray=""/><g transform="translate(395.06895698333335,342.059157102) translate(-395.06895698333335,-342.059157102)"><path fill="black" stroke="none" paint-order="stroke fill markers" d=" M 381.4562875666667 335.25282239366663 L 395.06895698333335 342.059157102 L 381.4562875666667 348.8654918103333 Z"/></g></g><g><g><rect fill="white" stroke="none" x="430.734150855" y="366.56196205199996" width="174.90056099" height="21.23576429"/></g><text fill="black" stroke="none" font-family="sans-serif" font-size="11pt" font-style="normal" font-weight="normal" text-decoration="normal" x="433.18443135" y="381.26364502199993" text-anchor="start" dominant-baseline="alphabetic" xml:space="preserve">bind clique a batir_artefact</text></g><g><path fill="none" stroke="black" paint-order="fill stroke markers" d=" M 411.40416028333334 387.7977263419999 L 476.74497348333335 387.7977263419999 L 476.74497348333335 409.03349063199994 L 424.853477667 409.03349063199994" stroke-miterlimit="10" stroke-width="1.3612669416666667" stroke-dasharray=""/><g transform="translate(411.40416028333334,409.03349063199994) translate(-411.40416028333334,-409.03349063199994)"><path fill="black" stroke="none" paint-order="stroke fill markers" d=" M 425.0168297 402.2271559236666 L 411.40416028333334 409.03349063199994 L 425.0168297 415.8398253403333 Z"/></g></g><g><g><rect fill="white" stroke="none" x="129.3384054216667" y="433.5362955819999" width="209.90056099" height="21.23576429"/></g><text fill="black" stroke="none" font-family="sans-serif" font-size="11pt" font-style="normal" font-weight="normal" text-decoration="normal" x="131.78868591666668" y="448.2379785519999" text-anchor="start" dominant-baseline="alphabetic" xml:space="preserve">clique sur map (batir_artefact())</text></g><g><path fill="none" stroke="black" paint-order="fill stroke markers" d=" M 73.50841485 454.77205987199994 L 381.6196395996667 454.77205987199994" stroke-miterlimit="10" stroke-width="1.3612669416666667" stroke-dasharray=""/><g transform="translate(395.06895698333335,454.77205987199994) translate(-395.06895698333335,-454.77205987199994)"><path fill="black" stroke="none" paint-order="stroke fill markers" d=" M 381.4562875666667 447.9657251636666 L 395.06895698333335 454.77205987199994 L 381.4562875666667 461.5783945803333 Z"/></g></g><g><g><rect fill="white" stroke="none" x="430.734150855" y="479.274864822" width="255.90056099" height="21.23576429"/></g><text fill="black" stroke="none" font-family="sans-serif" font-size="11pt" font-style="normal" font-weight="normal" text-decoration="normal" x="433.18443135" y="493.97654779199996" text-anchor="start" dominant-baseline="alphabetic" xml:space="preserve">Check si ressources requises en main</text></g><g><path fill="none" stroke="black" paint-order="fill stroke markers" d=" M 411.40416028333334 500.51062911199995 L 476.74497348333335 500.51062911199995 L 476.74497348333335 521.746393402 L 424.853477667 521.746393402" stroke-miterlimit="10" stroke-width="1.3612669416666667" stroke-dasharray=""/><g transform="translate(411.40416028333334,521.746393402) translate(-411.40416028333334,-521.746393402)"><path fill="black" stroke="none" paint-order="stroke fill markers" d=" M 425.0168297 514.9400586936666 L 411.40416028333334 521.746393402 L 425.0168297 528.5527281103333 Z"/></g></g><g><g><rect fill="white" stroke="none" x="134.8384054216667" y="590.354247262" width="198.90056099" height="21.23576429"/></g><text fill="black" stroke="none" font-family="sans-serif" font-size="11pt" font-style="normal" font-weight="normal" text-decoration="normal" x="137.28868591666668" y="605.0559302319999" text-anchor="start" dominant-baseline="alphabetic" xml:space="preserve">print(ressources insufisantes)</text></g><g><path fill="none" stroke="black" paint-order="fill stroke markers" d=" M 395.06895698333335 611.590011552 L 86.95773223366666 611.590011552" stroke-miterlimit="10" stroke-width="1.3612669416666667" stroke-dasharray=""/><g transform="translate(73.50841485,611.590011552) translate(-73.50841485,-611.590011552)"><path fill="black" stroke="none" paint-order="stroke fill markers" d=" M 87.12108426666666 604.7836768436666 L 73.50841485 611.590011552 L 87.12108426666666 618.3963462603333 Z"/></g></g><g><g><rect fill="white" stroke="none" x="430.734150855" y="704.700670362" width="189.90056099" height="21.23576429"/></g><text fill="black" stroke="none" font-family="sans-serif" font-size="11pt" font-style="normal" font-weight="normal" text-decoration="normal" x="433.18443135" y="719.402353332" text-anchor="start" dominant-baseline="alphabetic" xml:space="preserve">prochaineaction = choixUser</text></g><g><path fill="none" stroke="black" paint-order="fill stroke markers" d=" M 411.40416028333334 725.936434652 L 476.74497348333335 725.936434652 L 476.74497348333335 747.172198942 L 424.853477667 747.172198942" stroke-miterlimit="10" stroke-width="1.3612669416666667" stroke-dasharray=""/><g transform="translate(411.40416028333334,747.172198942) translate(-411.40416028333334,-747.172198942)"><path fill="black" stroke="none" paint-order="stroke fill markers" d=" M 425.0168297 740.3658642336667 L 411.40416028333334 747.172198942 L 425.0168297 753.9785336503334 Z"/></g></g><g><g><rect fill="white" stroke="none" x="107.83840542166668" y="796.177808842" width="252.90056099" height="21.23576429"/></g><text fill="black" stroke="none" font-family="sans-serif" font-size="11pt" font-style="normal" font-weight="normal" text-decoration="normal" x="110.28868591666668" y="810.879491812" text-anchor="start" dominant-baseline="alphabetic" xml:space="preserve">clique droit sur emplacement batiment</text></g><g><path fill="none" stroke="black" paint-order="fill stroke markers" d=" M 73.50841485 817.413573132 L 381.6196395996667 817.413573132" stroke-miterlimit="10" stroke-width="1.3612669416666667" stroke-dasharray=""/><g transform="translate(395.06895698333335,817.413573132) translate(-395.06895698333335,-817.413573132)"><path fill="black" stroke="none" paint-order="stroke fill markers" d=" M 381.4562875666667 810.6072384236667 L 395.06895698333335 817.413573132 L 381.4562875666667 824.2199078403333 Z"/></g></g><g><g><rect fill="white" stroke="none" x="430.73415085499994" y="841.9163780819999" width="253.90056099" height="21.23576429"/></g><text fill="black" stroke="none" font-family="sans-serif" font-size="11pt" font-style="normal" font-weight="normal" text-decoration="normal" x="433.18443134999995" y="856.6180610519999" text-anchor="start" dominant-baseline="alphabetic" xml:space="preserve">ajoute action batir a actions_requises[]</text></g><g><path fill="none" stroke="black" paint-order="fill stroke markers" d=" M 411.40416028333334 863.152142372 L 690.5153850329999 863.152142372" stroke-miterlimit="10" stroke-width="1.3612669416666667" stroke-dasharray=""/><g transform="translate(703.9647024166666,863.152142372) translate(-703.9647024166666,-863.152142372)"><path fill="black" stroke="none" paint-order="stroke fill markers" d=" M 690.3520329999999 856.3458076636666 L 703.9647024166666 863.152142372 L 690.3520329999999 869.9584770803333 Z"/></g></g><g><g><rect fill="white" stroke="none" x="739.6298962883334" y="887.6549473219999" width="343.90056099" height="21.23576429"/></g><text fill="black" stroke="none" font-family="sans-serif" font-size="11pt" font-style="normal" font-weight="normal" text-decoration="normal" x="742.0801767833334" y="902.3566302919999" text-anchor="start" dominant-baseline="alphabetic" xml:space="preserve">dans boucle transfert actions_requises dans actions</text></g><g><path fill="none" stroke="black" paint-order="fill stroke markers" d=" M 720.2999057166667 908.8907116119999 L 785.6407189166666 908.8907116119999 L 785.6407189166666 930.1264759019999 L 733.7492231003333 930.1264759019999" stroke-miterlimit="10" stroke-width="1.3612669416666667" stroke-dasharray=""/><g transform="translate(720.2999057166667,930.1264759019999) translate(-720.2999057166667,-930.1264759019999)"><path fill="black" stroke="none" paint-order="stroke fill markers" d=" M 733.9125751333333 923.3201411936666 L 720.2999057166667 930.1264759019999 L 733.9125751333333 936.9328106103333 Z"/></g></g><g><g><rect fill="white" stroke="none" x="809.8235615799999" y="954.6292808519999" width="189.90056099" height="21.23576429"/></g><text fill="black" stroke="none" font-family="sans-serif" font-size="11pt" font-style="normal" font-weight="normal" text-decoration="normal" x="812.273842075" y="969.3309638219998" text-anchor="start" dominant-baseline="alphabetic" xml:space="preserve">envoi l'iteration et les actions</text></g><g><path fill="none" stroke="black" paint-order="fill stroke markers" d=" M 720.2999057166667 975.8650451419999 L 1075.7984610496665 975.8650451419999" stroke-miterlimit="10" stroke-width="1.3612669416666667" stroke-dasharray=""/><g transform="translate(1089.2477784333332,975.8650451419999) translate(-1089.2477784333332,-975.8650451419999)"><path fill="black" stroke="none" paint-order="stroke fill markers" d=" M 1075.6351090166665 969.0587104336665 L 1089.2477784333332 975.8650451419999 L 1075.6351090166665 982.6713798503332 Z"/></g></g><g><g><rect fill="white" stroke="none" x="792.3235615799999" y="1000.3678500919998" width="224.90056099" height="21.23576429"/></g><text fill="black" stroke="none" font-family="sans-serif" font-size="11pt" font-style="normal" font-weight="normal" text-decoration="normal" x="794.773842075" y="1015.0695330619998" text-anchor="start" dominant-baseline="alphabetic" xml:space="preserve">renvoi si jouer et les actions a jour</text></g><g><path fill="none" stroke="black" paint-order="fill stroke markers" d=" M 1089.2477784333332 1021.6036143819998 L 733.7492231003333 1021.6036143819998" stroke-miterlimit="10" stroke-width="1.3612669416666667" stroke-dasharray=""/><g transform="translate(720.2999057166667,1021.6036143819998) translate(-720.2999057166667,-1021.6036143819998)"><path fill="black" stroke="none" paint-order="stroke fill markers" d=" M 733.9125751333333 1014.7972796736665 L 720.2999057166667 1021.6036143819998 L 733.9125751333333 1028.4099490903332 Z"/></g></g><g><g><rect fill="white" stroke="none" x="780.4636971133334" y="1046.1064193319999" width="535.90056099" height="21.23576429"/></g><text fill="black" stroke="none" font-family="sans-serif" font-size="11pt" font-style="normal" font-weight="normal" text-decoration="normal" x="782.9139776083334" y="1060.808102302" text-anchor="start" dominant-baseline="alphabetic" xml:space="preserve">ajouter_actions_a_faire(les actions renvoyer par le serveur contenant nos actions)</text></g><g><path fill="none" stroke="black" paint-order="fill stroke markers" d=" M 720.2999057166667 1067.3421836219998 L 1363.0787321163332 1067.3421836219998" stroke-miterlimit="10" stroke-width="1.3612669416666667" stroke-dasharray=""/><g transform="translate(1376.5280495,1067.3421836219998) translate(-1376.5280495,-1067.3421836219998)"><path fill="black" stroke="none" paint-order="stroke fill markers" d=" M 1362.9153800833333 1060.5358489136665 L 1376.5280495 1067.3421836219998 L 1362.9153800833333 1074.148518330333 Z"/></g></g><g><g><rect fill="white" stroke="none" x="947.4636971133334" y="1091.844988572" width="201.90056099" height="21.23576429"/></g><text fill="black" stroke="none" font-family="sans-serif" font-size="11pt" font-style="normal" font-weight="normal" text-decoration="normal" x="949.9139776083334" y="1106.546671542" text-anchor="start" dominant-baseline="alphabetic" xml:space="preserve">jouer_prochain_coup(iteration)</text></g><g><path fill="none" stroke="black" paint-order="fill stroke markers" d=" M 720.2999057166667 1113.0807528619998 L 1363.0787321163332 1113.0807528619998" stroke-miterlimit="10" stroke-width="1.3612669416666667" stroke-dasharray=""/><g transform="translate(1376.5280495,1113.0807528619998) translate(-1376.5280495,-1113.0807528619998)"><path fill="black" stroke="none" paint-order="stroke fill markers" d=" M 1362.9153800833333 1106.2744181536666 L 1376.5280495 1113.0807528619998 L 1362.9153800833333 1119.887087570333 Z"/></g></g><g><g><rect fill="white" stroke="none" x="1395.8580400716667" y="1137.583557812" width="150.90056099" height="21.23576429"/></g><text fill="black" stroke="none" font-family="sans-serif" font-size="11pt" font-style="normal" font-weight="normal" text-decoration="normal" x="1398.3083205666667" y="1152.285240782" text-anchor="start" dominant-baseline="alphabetic" xml:space="preserve">jouer_prochain_coup()</text></g><g><path fill="none" stroke="black" paint-order="fill stroke markers" d=" M 1376.5280495 1158.819322102 L 1552.6392742496664 1158.819322102" stroke-miterlimit="10" stroke-width="1.3612669416666667" stroke-dasharray=""/><g transform="translate(1566.0885916333332,1158.819322102) translate(-1566.0885916333332,-1158.819322102)"><path fill="black" stroke="none" paint-order="stroke fill markers" d=" M 1552.4759222166665 1152.0129873936667 L 1566.0885916333332 1158.819322102 L 1552.4759222166665 1165.625656810333 Z"/></g></g><g><g><rect fill="white" stroke="none" x="1585.4185822049997" y="1183.322127052" width="150.90056099" height="21.23576429"/></g><text fill="black" stroke="none" font-family="sans-serif" font-size="11pt" font-style="normal" font-weight="normal" text-decoration="normal" x="1587.8688626999997" y="1198.0238100220001" text-anchor="start" dominant-baseline="alphabetic" xml:space="preserve">jouer_prochain_coup()</text></g><g><path fill="none" stroke="black" paint-order="fill stroke markers" d=" M 1566.0885916333332 1204.557891342 L 1742.1998163829996 1204.557891342" stroke-miterlimit="10" stroke-width="1.3612669416666667" stroke-dasharray=""/><g transform="translate(1755.6491337666664,1204.557891342) translate(-1755.6491337666664,-1204.557891342)"><path fill="black" stroke="none" paint-order="stroke fill markers" d=" M 1742.0364643499997 1197.7515566336667 L 1755.6491337666664 1204.557891342 L 1742.0364643499997 1211.3642260503332 Z"/></g></g><g><g><rect fill="white" stroke="none" x="1774.9791243383331" y="1229.0606962919999" width="142.90056099" height="21.23576429"/></g><text fill="black" stroke="none" font-family="sans-serif" font-size="11pt" font-style="normal" font-weight="normal" text-decoration="normal" x="1777.4294048333331" y="1243.762379262" text-anchor="start" dominant-baseline="alphabetic" xml:space="preserve">ciblersiteconstruction</text></g><g><path fill="none" stroke="black" paint-order="fill stroke markers" d=" M 1755.6491337666664 1250.296460582 L 1820.9899469666664 1250.296460582 L 1820.9899469666664 1271.532224872 L 1769.0984511503332 1271.532224872" stroke-miterlimit="10" stroke-width="1.3612669416666667" stroke-dasharray=""/><g transform="translate(1755.6491337666664,1271.532224872) translate(-1755.6491337666664,-1271.532224872)"><path fill="black" stroke="none" paint-order="stroke fill markers" d=" M 1769.261803183333 1264.7258901636667 L 1755.6491337666664 1271.532224872 L 1769.261803183333 1278.3385595803331 Z"/></g></g><path fill="white" stroke="black" paint-order="fill stroke markers" d=" M 1755.6491337666664 1314.820513617 L 1747.4815321166664 1314.820513617 M 1646.7429628766665 1296.0350298219998 L 1732.7798491466665 1296.0350298219998 L 1747.4815321166666 1314.820513617 L 1732.7798491466665 1333.6059974119999 L 1646.7429628766665 1333.6059974119999 L 1646.7429628766665 1296.0350298219998" stroke-miterlimit="10" stroke-width="1.3612669416666667" stroke-dasharray=""/><g><text fill="black" stroke="none" font-family="sans-serif" font-size="11pt" font-style="normal" font-weight="normal" text-decoration="normal" x="1669.6122474966664" y="1318.904314442" text-anchor="start" dominant-baseline="alphabetic" xml:space="preserve">bouger()</text></g><path fill="white" stroke="black" paint-order="fill stroke markers" d=" M 1755.6491337666664 1376.894286157 L 1763.8167354166665 1376.894286157 M 1778.5184183866666 1358.1088023619998 L 2064.5553046566665 1358.1088023619998 L 2064.5553046566665 1395.6797699519998 L 1778.5184183866666 1395.6797699519998 L 1763.8167354166665 1376.894286157 L 1778.5184183866666 1358.1088023619998" stroke-miterlimit="10" stroke-width="1.3612669416666667" stroke-dasharray=""/><g><text fill="black" stroke="none" font-family="sans-serif" font-size="11pt" font-style="normal" font-weight="normal" text-decoration="normal" x="1786.6860200366664" y="1380.978086982" text-anchor="start" dominant-baseline="alphabetic" xml:space="preserve">if bouger() = rendu construirebatiment()</text></g><g><g><rect fill="white" stroke="none" x="1774.9791243383331" y="1420.1825749019997" width="4.90056099" height="21.23576429"/></g><text fill="black" stroke="none" font-family="sans-serif" font-size="11pt" font-style="normal" font-weight="normal" text-decoration="normal" x="1777.4294048333331" y="1434.8842578719998" text-anchor="start" dominant-baseline="alphabetic" xml:space="preserve"></text></g><g><path fill="none" stroke="black" paint-order="fill stroke markers" d=" M 1755.6491337666664 1441.4183391919998 L 1820.9899469666664 1441.4183391919998 L 1820.9899469666664 1462.6541034819998 L 1769.0984511503332 1462.6541034819998" stroke-miterlimit="10" stroke-width="1.3612669416666667" stroke-dasharray=""/><g transform="translate(1755.6491337666664,1462.6541034819998) translate(-1755.6491337666664,-1462.6541034819998)"><path fill="black" stroke="none" paint-order="stroke fill markers" d=" M 1769.261803183333 1455.8477687736665 L 1755.6491337666664 1462.6541034819998 L 1769.261803183333 1469.460438190333 Z"/></g></g><g><g/><path fill="none" stroke="black" paint-order="fill stroke markers" d=" M 16.335203299999996 546.249198352 L 460.40977018333336 546.249198352 L 460.40977018333336 636.092816502 L 16.335203299999996 636.092816502 L 16.335203299999996 546.249198352 Z" stroke-miterlimit="10" stroke-width="2.3336004714285714" stroke-dasharray=""/><path fill="white" stroke="black" paint-order="fill stroke markers" d=" M 16.335203299999996 546.249198352 L 16.335203299999996 565.851442312 L 122.0056099 565.851442312 L 131.80673188 556.050320332 L 131.80673188 546.249198352 L 16.335203299999996 546.249198352" stroke-miterlimit="10" stroke-width="2.3336004714285714" stroke-dasharray=""/><text fill="black" stroke="none" font-family="sans-serif" font-size="8.8pt" font-style="normal" font-weight="bold" text-decoration="normal" x="32.67040659999999" y="559.317360992" text-anchor="start" dominant-baseline="alphabetic" xml:space="preserve">expandable−</text><g><rect fill="white" stroke="none" x="145.691654685" y="547.556014616" width="51.90056099" height="16.988611432000003"/></g><text fill="black" stroke="none" font-family="sans-serif" font-size="8.8pt" font-style="normal" font-weight="bold" text-decoration="normal" x="148.14193518" y="559.317360992" text-anchor="start" dominant-baseline="alphabetic" xml:space="preserve">[negatif]</text></g><g><g/><path fill="none" stroke="black" paint-order="fill stroke markers" d=" M 346.0633470833333 660.595621452 L 626.3520330000001 660.595621452 L 626.3520330000001 771.6750038920001 L 346.0633470833333 771.6750038920001 L 346.0633470833333 660.595621452 Z" stroke-miterlimit="10" stroke-width="2.3336004714285714" stroke-dasharray=""/><path fill="white" stroke="black" paint-order="fill stroke markers" d=" M 346.0633470833333 660.595621452 L 346.0633470833333 680.197865412 L 448.7337536833333 680.197865412 L 458.5348756633333 670.396743432 L 458.5348756633333 660.595621452 L 346.0633470833333 660.595621452" stroke-miterlimit="10" stroke-width="2.3336004714285714" stroke-dasharray=""/><text fill="black" stroke="none" font-family="sans-serif" font-size="8.8pt" font-style="normal" font-weight="bold" text-decoration="normal" x="362.3985503833333" y="673.663784092" text-anchor="start" dominant-baseline="alphabetic" xml:space="preserve">expandable-</text><g><rect fill="white" stroke="none" x="472.4197984683333" y="661.902437716" width="47.90056099" height="16.988611432000003"/></g><text fill="black" stroke="none" font-family="sans-serif" font-size="8.8pt" font-style="normal" font-weight="bold" text-decoration="normal" x="474.8700789633333" y="673.663784092" text-anchor="start" dominant-baseline="alphabetic" xml:space="preserve">[positif]</text></g></g><g/><g/><g/><g/><g/><g/><g/></g></svg>